<svg width="32" height="32" viewBox="0 0 32 32" fill="none" xmlns="http://www.w3.org/2000/svg">
<g clip-path="url(#clip0_2331_5323)">
<path d="M31.9916 31.9971H0V0.0521526H31.9916V31.9971Z" fill="white"/>
<path d="M31.9938 19.2144H17.9074V31.995H14.0623V19.2144H0.0131836V12.8276H14.0623V0.05233H17.9074V12.8276H31.9938V19.2144Z" fill="#CE1124"/>
<path d="M0.000488281 28.2771V21.3218H6.97832L0.000488281 28.2771Z" fill="#00247D"/>
<path d="M3.85029 31.9984L3.74805 31.9896L12.7958 22.9232V31.9984H3.85029Z" fill="#00247D"/>
<path d="M10.7386 21.3658L0.000488281 31.9966V29.491L8.17978 21.3658H10.7386Z" fill="#CE1124"/>
<path d="M21.2617 10.6862L31.9998 0.055335V2.56101L23.8205 10.6862H21.2617Z" fill="#CE1124"/>
<path d="M0.000488281 3.72137V10.6767H6.97832L0.000488281 3.72137Z" fill="#00247D"/>
<path d="M3.85029 8.01086e-05L3.74805 0.00891972L12.7958 9.07516V8.01086e-05H3.85029Z" fill="#00247D"/>
<path d="M10.6835 10.6869L0.00732422 0.0607586L2.50418 0.0560379L12.8057 10.2547V10.6869H10.6835Z" fill="#CE1124"/>
<path d="M32.0003 28.2786V21.3233H25.0225L32.0003 28.2786Z" fill="#00247D"/>
<path d="M28.1506 32L28.2528 31.9912L19.2051 22.9249V32H28.1506Z" fill="#00247D"/>
<path d="M31.99 31.9851L29.5885 31.9855L19.2144 21.7149V21.3546H21.4092L31.99 31.9851Z" fill="#CE1124"/>
<path d="M32.0003 3.72397V10.6793H25.0225L32.0003 3.72397Z" fill="#00247D"/>
<path d="M28.1506 0.00279808L28.2528 0.0115738L19.2051 9.07788V0.00279808H28.1506Z" fill="#00247D"/>
</g>
<defs>
<clipPath id="clip0_2331_5323">
<rect width="32" height="32" rx="16" fill="white"/>
</clipPath>
</defs>
</svg>
