<svg width="32" height="32" viewBox="0 0 32 32" fill="none" xmlns="http://www.w3.org/2000/svg">
<g clip-path="url(#clip0_2331_5344)">
<rect width="32" height="32" rx="16" fill="white"/>
<g clip-path="url(#clip1_2331_5344)">
<path d="M13.5598 -3.33334H-17.3335V35.3333H13.5598V-3.33334Z" fill="#0A650C"/>
<path d="M55.333 -3.33334H13.5596V35.3333H55.333V-3.33334Z" fill="#FC0D1B"/>
<path d="M8.33554 16.9099C8.33554 16.9099 5.88419 16.4018 5.6499 16.2493V17.0793C5.6499 17.0793 7.78915 17.7228 8.31998 17.6551L8.33554 16.9099Z" fill="#FFFD38"/>
<path d="M8.22863 17.698C7.58317 17.698 5.71944 17.1394 5.64042 17.1157L5.61475 17.108V16.1824L5.66769 16.2169C5.84878 16.3347 7.49623 16.6973 8.34201 16.8727L8.37108 16.8786L8.35402 17.6888L8.32386 17.6926C8.29615 17.6962 8.26423 17.698 8.22863 17.698ZM5.68464 17.0503C5.91524 17.1187 7.63283 17.6222 8.22863 17.6222C8.24897 17.6222 8.26807 17.6216 8.28552 17.6204L8.29987 16.9411C8.0252 16.8838 6.08474 16.4763 5.68464 16.3082V17.0503Z" fill="#603913"/>
<path d="M5.60303 16.08C5.60303 16.08 6.72717 16.4696 8.33548 16.7404V16.9098C8.33548 16.9098 5.89968 16.4526 5.63429 16.3339L5.60303 16.08Z" fill="#FFFD38"/>
<path d="M8.37042 16.9548L8.32949 16.9471C8.22987 16.9285 5.88676 16.4879 5.62092 16.3691L5.60222 16.3608L5.56104 16.0257L5.61358 16.0439C5.62475 16.0478 6.75408 16.4358 8.34084 16.7031L8.37046 16.708L8.37042 16.9548ZM5.66598 16.3065C5.97899 16.4237 7.98726 16.8055 8.30057 16.8647V16.7729C6.91607 16.5376 5.88362 16.2121 5.6448 16.1336L5.66598 16.3065Z" fill="#603913"/>
<path d="M5.61523 16.9883C5.66201 17.0223 7.07083 17.4402 8.33224 17.5716L8.31683 17.7704C8.31683 17.7704 5.97751 17.3671 5.6496 17.1809L5.61523 16.9883Z" fill="#FFFD38"/>
<path d="M8.34844 17.8141L8.31134 17.8078C8.21556 17.7912 5.9626 17.4014 5.63334 17.2144L5.61844 17.206L5.56494 16.9065L5.63454 16.9568C5.69037 16.9877 7.07349 17.4022 8.33548 17.5338L8.36988 17.5375L8.34844 17.8141ZM5.68055 17.1551C6.02402 17.3268 7.98931 17.6748 8.28516 17.7264L8.29458 17.6056C7.19541 17.4868 5.9584 17.1468 5.66105 17.0456L5.68055 17.1551Z" fill="#603913"/>
<path d="M7.71045 21.8456C9.92492 22.2629 10.764 22.4068 12.3368 22.5784L12.8566 22.7702C12.8566 22.7702 11.058 22.8265 7.86626 22.1048L7.71045 21.8456Z" fill="#FFFD38"/>
<path d="M12.759 22.809C12.3018 22.809 10.5967 22.7611 7.85922 22.1421L7.84502 22.1388L7.63721 21.7934L7.71634 21.8082C9.97678 22.2342 10.8069 22.3733 12.3402 22.5408L13.0513 22.8019L12.8576 22.8082C12.8576 22.8082 12.8244 22.809 12.759 22.809ZM7.8876 22.0711C10.4204 22.6427 12.0625 22.7238 12.6457 22.7324L12.3255 22.6143C10.8156 22.4503 9.98649 22.3123 7.78349 21.8979L7.8876 22.0711Z" fill="#603913"/>
<path d="M7.19043 21.0901C7.19043 21.0901 9.49849 21.5862 11.0476 21.7552L12.3991 22.5896C12.3991 22.5896 8.74988 22.2063 7.64786 21.8567L7.19043 21.0901Z" fill="#FFFD38"/>
<path d="M12.5585 22.6444L12.3957 22.6276C12.3592 22.6237 8.73084 22.2398 7.63817 21.8932L7.62575 21.8893L7.11621 21.0354L7.19728 21.0528C7.22032 21.0579 9.52144 21.5507 11.0511 21.7176L11.0649 21.7223L12.5585 22.6444ZM7.67027 21.8245C8.636 22.1255 11.5191 22.4553 12.2386 22.5343L11.0367 21.7922C9.66667 21.6419 7.68652 21.2331 7.26443 21.1443L7.67027 21.8245Z" fill="#603913"/>
<path d="M7.02441 20.8983C7.02441 20.8983 9.33233 21.3944 10.8814 21.5637L10.9127 21.7893C10.9127 21.7893 8.24069 21.4735 7.13878 21.1239L7.02441 20.8983Z" fill="#FFFD38"/>
<path d="M10.9537 21.8322L10.9087 21.8269C10.8819 21.8236 8.22112 21.5066 7.12874 21.1602L7.11498 21.1558L6.95752 20.8453L7.03106 20.8613C7.05414 20.866 9.35523 21.3588 10.8849 21.5258L10.9119 21.5288L10.9537 21.8322ZM7.16215 21.0919C8.1781 21.4101 10.5171 21.7028 10.8712 21.7461L10.8508 21.5984C9.47321 21.4453 7.49441 21.036 7.0908 20.951L7.16215 21.0919Z" fill="#603913"/>
<path d="M6.58007 12.0879C6.58007 12.0879 6.11854 13.022 6.11281 13.1321C6.10722 13.242 7.80736 14.4631 7.80736 14.4631C7.80736 14.4631 8.73622 14.3472 8.74758 14.3166C8.75879 14.2859 8.73626 13.5289 8.73067 13.4983C8.72505 13.4678 6.58007 12.0879 6.58007 12.0879Z" fill="#FFFD38"/>
<path d="M7.79858 14.5023L7.78792 14.4947C7.00465 13.9323 6.07222 13.2387 6.07766 13.1301C6.08354 13.0173 6.47148 12.2273 6.54912 12.07L6.56643 12.0352L6.59779 12.0554C8.75603 13.4438 8.76052 13.469 8.76461 13.4909C8.76571 13.4967 8.79707 14.2837 8.77976 14.3306C8.77049 14.3559 8.76081 14.3821 7.81103 14.5008L7.79858 14.5023ZM6.59363 12.1407C6.41594 12.5016 6.15124 13.0626 6.14755 13.1342C6.18998 13.2287 7.18887 13.9732 7.81574 14.4239C8.12989 14.3845 8.62099 14.3174 8.71568 14.2901C8.71911 14.191 8.70407 13.6179 8.69713 13.5173C8.57896 13.4246 7.40023 12.6599 6.59363 12.1407Z" fill="#603913"/>
<path d="M6.05029 13.3518C6.05029 13.3518 7.1537 14.3777 7.5591 14.6036L7.92495 14.4997C7.92495 14.4997 6.51207 13.5167 6.12913 13.1076L6.05029 13.3518Z" fill="#FFFD38"/>
<path d="M7.55516 14.6438L7.54329 14.6373C7.13895 14.4119 6.07294 13.4225 6.02777 13.3806L6.00977 13.3638L6.11457 13.0386L6.15386 13.0806C6.52968 13.4823 7.92999 14.4579 7.94405 14.4678L8.0112 14.5145L7.55516 14.6438ZM6.09153 13.3399C6.23481 13.4723 7.18635 14.3458 7.56352 14.5633L7.83958 14.4848C7.56217 14.2901 6.52179 13.5518 6.14447 13.1755L6.09153 13.3399Z" fill="#603913"/>
<path d="M5.74463 20.6296L6.11651 21.2535C6.11651 21.2535 6.91299 20.3223 9.25859 20.0438L8.88671 19.3719C8.88671 19.3719 7.14308 19.4198 5.74463 20.6296Z" fill="#FFFD38"/>
<path d="M6.11142 21.3148L5.69824 20.6213L5.72293 20.5999C7.11455 19.3963 8.86844 19.3346 8.88604 19.334L8.90638 19.3334L9.31657 20.0751L9.26238 20.0815C6.96019 20.3549 6.14991 21.2701 6.14198 21.2793L6.11142 21.3148ZM5.79128 20.6378L6.12248 21.1937C6.29075 21.0217 7.1331 20.2693 9.20056 20.0127L8.8676 19.4106C8.67071 19.4213 7.0796 19.5395 5.79128 20.6378Z" fill="#603913"/>
<path d="M5.58545 20.5165L5.69613 20.7086C5.69613 20.7086 6.65858 19.7487 8.93115 19.4678L8.81612 19.2854C8.81612 19.2854 6.96612 19.4031 5.58545 20.5165Z" fill="#FFFD38"/>
<path d="M5.68854 20.7675L5.53857 20.507L5.56435 20.4863C6.93768 19.3786 8.79528 19.2488 8.81383 19.2476L8.83362 19.2463L8.99247 19.4985L8.93488 19.5056C6.69956 19.7817 5.72904 20.7269 5.71951 20.7364L5.68854 20.7675ZM5.63205 20.5262L5.70425 20.6515C5.88818 20.4889 6.87396 19.6969 8.86956 19.4376L8.79846 19.3248C8.59813 19.3416 6.90986 19.5119 5.63205 20.5262Z" fill="#603913"/>
<path d="M6.00146 21.2343L6.10313 21.4068C6.10313 21.4068 6.98385 20.4662 9.32942 20.1879L9.23199 20.0054C9.23199 20.0054 7.38217 20.0823 6.00146 21.2343Z" fill="#FFFD38"/>
<path d="M6.09664 21.4666L5.95459 21.2254L5.97997 21.2041C7.35355 20.0581 9.21185 19.9683 9.2304 19.9675L9.25143 19.9668L9.38639 20.2193L9.33304 20.2255C7.02622 20.4993 6.13622 21.4246 6.12749 21.4338L6.09664 21.4666ZM6.04793 21.2432L6.1103 21.3492C6.28769 21.1846 7.21859 20.4117 9.27217 20.1566L9.21225 20.0445C9.00608 20.0577 7.32262 20.1965 6.04793 21.2432Z" fill="#603913"/>
<path d="M4.71289 15.589V16.368C4.71289 16.368 5.77466 15.6736 8.33545 15.1317V14.3865C8.33545 14.3865 6.7741 14.5389 4.71289 15.589Z" fill="#FFFD38"/>
<path d="M4.67773 16.4349V15.5648L4.69778 15.5546C6.74099 14.5139 8.31655 14.3502 8.33221 14.3487L8.3703 14.345V15.1629L8.34203 15.169C5.81864 15.703 4.74131 16.3935 4.73065 16.4005L4.67773 16.4349ZM4.74763 15.6129V16.3035C4.99203 16.1609 6.09254 15.5706 8.30048 15.1006V14.4287C8.04976 14.4603 6.59361 14.6764 4.74763 15.6129Z" fill="#603913"/>
<path d="M4.65088 15.504V15.7411C4.65088 15.7411 6.07591 14.7166 8.32091 14.4357L8.32011 14.2001C8.32011 14.2001 6.11875 14.4878 4.65088 15.504Z" fill="#FFFD38"/>
<path d="M4.61572 15.8116V15.4833L4.63183 15.472C6.08961 14.463 8.29357 14.1655 8.31566 14.1625L8.3547 14.1575L8.35579 14.4695L8.32468 14.4733C6.11474 14.7499 4.68412 15.7624 4.66991 15.7727L4.61572 15.8116ZM4.68561 15.5247V15.6727C4.96642 15.4873 6.31642 14.6554 8.28565 14.402L8.2851 14.2433C7.9849 14.2879 6.02301 14.6073 4.68561 15.5247Z" fill="#603913"/>
<path d="M4.65283 16.3824V16.6195C4.65283 16.6195 6.07158 15.5719 8.30446 15.3519L8.32002 15.0807C8.32002 15.0807 6.12059 15.3664 4.65283 16.3824Z" fill="#FFFD38"/>
<path d="M4.61768 16.6909V16.3615L4.63378 16.3504C6.09142 15.3413 8.29359 15.0461 8.31572 15.0431L8.35734 15.0378L8.3373 15.3865L8.30743 15.3894C6.11016 15.6061 4.68651 16.6403 4.6723 16.6507L4.61768 16.6909ZM4.68753 16.4033V16.5502C4.96852 16.3607 6.31275 15.5174 8.2712 15.3171L8.28227 15.1242C7.97345 15.1701 6.02087 15.4884 4.68753 16.4033Z" fill="#603913"/>
<path d="M5.35547 12.5274C5.35547 12.5274 5.35547 12.2297 5.40856 12.105C5.46166 11.9802 5.497 11.961 5.497 11.961C5.497 11.961 6.37335 11.8458 8.30285 12.9306L8.27623 13.1609C8.27623 13.1609 6.20519 12.1625 5.46166 12.1818L5.35547 12.5274Z" fill="#FFFD38"/>
<path d="M8.3048 13.2162L8.26182 13.1955C8.24162 13.1857 6.2346 12.2225 5.48664 12.2194L5.32031 12.7609V12.5274C5.32031 12.5148 5.32101 12.2199 5.37666 12.0891C5.43056 11.9622 5.47025 11.933 5.48106 11.9271L5.49252 11.9234C5.49252 11.9234 5.52079 11.9195 5.57837 11.9195C5.81335 11.9195 6.70551 11.99 8.31875 12.8968L8.34029 12.909L8.3048 13.2162ZM5.48299 12.1436C6.19038 12.1436 7.94197 12.9608 8.24725 13.1059L8.26499 12.9521C6.67947 12.0646 5.80835 11.9953 5.57841 11.9953C5.54401 11.9953 5.52122 11.9968 5.50965 11.9977C5.50132 12.0066 5.4754 12.0378 5.44005 12.1209C5.42968 12.1455 5.42135 12.178 5.41482 12.2139L5.43611 12.1446L5.48299 12.1436Z" fill="#603913"/>
<path d="M6.16046 10.7995L5.5498 11.9802C5.5498 11.9802 7.12525 12.2202 8.32892 13.0171L8.2847 11.337C8.2847 11.337 6.62958 10.7706 6.16046 10.7995Z" fill="#FFFD38"/>
<path d="M8.36584 13.0857L8.31099 13.0493C7.12747 12.2659 5.5608 12.0201 5.54513 12.0177L5.49463 12.01L6.13954 10.7628L6.15878 10.7616C6.17094 10.7609 6.1839 10.7605 6.19767 10.7605C6.71046 10.7605 8.23106 11.2788 8.29544 11.3009L8.31917 11.3089L8.36584 13.0857ZM5.60513 11.9511C5.8798 11.9996 7.2249 12.2634 8.2924 12.9488L8.25067 11.3651C8.05198 11.2981 6.66555 10.8364 6.19763 10.8364C6.19216 10.8364 6.18686 10.8364 6.18153 10.8365L5.60513 11.9511Z" fill="#603913"/>
<path d="M6.12509 10.569C6.12509 10.569 6.00119 10.7706 5.99221 10.8091C5.98348 10.8474 5.97461 11.1739 5.97461 11.1739L6.16047 10.7995C6.16047 10.7995 6.83306 10.8379 8.25813 11.385L8.27588 11.1642C8.27588 11.1642 7.02791 10.6458 6.12509 10.569Z" fill="#FFFD38"/>
<path d="M8.28918 11.437L8.24675 11.4208C6.98355 10.9357 6.30713 10.8514 6.18061 10.8391L5.93555 11.3329L5.93993 11.1727C5.94143 11.1175 5.94935 10.8402 5.95873 10.7998C5.96801 10.7594 6.0581 10.6103 6.09629 10.548L6.10761 10.5295L6.1281 10.5313C7.02558 10.6076 8.27607 11.1237 8.28863 11.1288L8.31321 11.139L8.28918 11.437ZM6.14036 10.7604L6.16246 10.7617C6.16929 10.762 6.84282 10.8057 8.22747 11.333L8.23894 11.1896C8.06099 11.1178 6.95924 10.6837 6.14307 10.6086C6.08902 10.6975 6.03184 10.7981 6.0264 10.8184C6.02315 10.8331 6.01877 10.9143 6.01508 11.0129L6.14036 10.7604Z" fill="#603913"/>
<path d="M18.8569 16.9099C18.8569 16.9099 21.3084 16.4018 21.5426 16.2493V17.0793C21.5426 17.0793 19.4034 17.7228 18.8726 17.6551L18.8569 16.9099Z" fill="#FFFD38"/>
<path d="M18.9636 17.698C18.928 17.698 18.896 17.6962 18.8684 17.6926L18.8382 17.6888L18.8213 16.8786L18.8504 16.8727C19.6961 16.6973 21.3436 16.3347 21.5245 16.2169L21.5775 16.1824V17.108L21.5518 17.1157C21.4728 17.1394 19.6092 17.698 18.9636 17.698ZM18.9067 17.6204C19.4406 17.6587 21.269 17.121 21.5076 17.0503V16.3082C21.1076 16.4764 19.1672 16.8838 18.8925 16.9411L18.9067 17.6204Z" fill="#603913"/>
<path d="M21.5895 16.08C21.5895 16.08 20.4652 16.4696 18.8569 16.7404V16.9098C18.8569 16.9098 21.2929 16.4526 21.5583 16.3339L21.5895 16.08Z" fill="#FFFD38"/>
<path d="M18.8223 16.9548V16.708L18.8519 16.7031C20.4386 16.4358 21.5679 16.0477 21.5791 16.0439L21.6317 16.0257L21.5905 16.3608L21.5718 16.3691C21.306 16.4879 18.9629 16.9285 18.8632 16.9471L18.8223 16.9548ZM18.8921 16.773V16.8647C19.2054 16.8055 21.2137 16.4237 21.5267 16.3065L21.5479 16.1336C21.3091 16.2122 20.2766 16.5376 18.8921 16.773Z" fill="#603913"/>
<path d="M21.5769 16.9883C21.5301 17.0222 20.1213 17.4402 18.8599 17.5716L18.8753 17.7703C18.8753 17.7703 21.2147 17.367 21.5425 17.1808L21.5769 16.9883Z" fill="#FFFD38"/>
<path d="M18.8437 17.8141L18.8223 17.5375L18.8567 17.5339C20.1185 17.4024 21.5019 16.9877 21.5592 16.9558L21.6288 16.9056L21.5737 17.206L21.5588 17.2145C21.2295 17.4014 18.9766 17.7912 18.8808 17.8078L18.8437 17.8141ZM18.8976 17.6056L18.907 17.7264C19.2029 17.6748 21.1684 17.3268 21.5116 17.1551L21.5311 17.046C21.2364 17.1477 20.0217 17.4843 18.8976 17.6056Z" fill="#603913"/>
<path d="M19.4822 21.8455C17.2677 22.2629 16.4287 22.4067 14.8557 22.5784L14.3359 22.7702C14.3359 22.7702 16.1345 22.8264 19.3262 22.1048L19.4822 21.8455Z" fill="#FFFD38"/>
<path d="M14.4334 22.809C14.368 22.809 14.3349 22.8081 14.3349 22.8081L14.1411 22.8019L14.8444 22.5425C16.3856 22.3732 17.2156 22.2341 19.4761 21.8082L19.5552 21.7934L19.3474 22.1388L19.3332 22.1421C16.5957 22.761 14.8908 22.809 14.4334 22.809ZM19.4089 21.8979C17.206 22.3123 16.3767 22.4505 14.8591 22.6163L14.5455 22.7323C15.1275 22.724 16.7702 22.6429 19.3048 22.071L19.4089 21.8979Z" fill="#603913"/>
<path d="M20.0016 21.0901C20.0016 21.0901 17.6937 21.5862 16.1446 21.7552L14.793 22.5896C14.793 22.5896 18.4422 22.2063 19.5442 21.8567L20.0016 21.0901Z" fill="#FFFD38"/>
<path d="M14.6338 22.6444L16.1412 21.7176C17.6709 21.5507 19.9719 21.0578 19.995 21.0528L20.0759 21.0354L19.5666 21.8893L19.5542 21.8932C18.4616 22.2398 14.833 22.6237 14.7966 22.6276L14.6338 22.6444ZM16.1557 21.7922L14.9536 22.5343C15.6732 22.4553 18.5564 22.1255 19.5221 21.8245L19.9278 21.1443C19.5058 21.2331 17.5257 21.6419 16.1557 21.7922Z" fill="#603913"/>
<path d="M20.1685 20.8983C20.1685 20.8983 17.8605 21.3944 16.3114 21.5637L16.2803 21.7892C16.2803 21.7892 18.9521 21.4734 20.0542 21.1238L20.1685 20.8983Z" fill="#FFFD38"/>
<path d="M16.2388 21.8322L16.2808 21.5288L16.3078 21.5258C17.8375 21.3589 20.1385 20.866 20.1615 20.8613L20.2351 20.8453L20.0776 21.1558L20.0638 21.1603C18.9715 21.5066 16.3107 21.8236 16.2839 21.8269L16.2388 21.8322ZM16.3419 21.5983L16.3215 21.7461C16.6757 21.7028 19.0146 21.4098 20.0304 21.0919L20.1018 20.951C19.6981 21.036 17.7193 21.4453 16.3419 21.5983Z" fill="#603913"/>
<path d="M20.6129 12.0879C20.6129 12.0879 21.0746 13.022 21.0801 13.1321C21.0857 13.242 19.3856 14.4631 19.3856 14.4631C19.3856 14.4631 18.4567 14.3472 18.4455 14.3166C18.4342 14.2859 18.4567 13.5289 18.4623 13.4983C18.4679 13.4678 20.6129 12.0879 20.6129 12.0879Z" fill="#FFFD38"/>
<path d="M19.3942 14.5023L19.3816 14.5009C18.432 14.3822 18.4223 14.3561 18.4129 14.3307C18.3945 14.28 18.4269 13.4968 18.428 13.4909C18.4321 13.4687 18.4369 13.4439 20.595 12.0554L20.6263 12.0352L20.6437 12.0701C20.7213 12.2273 21.1093 13.0173 21.115 13.1301C21.1205 13.2388 20.188 13.9323 19.4047 14.4947L19.3942 14.5023ZM18.478 14.2904C18.575 14.3176 19.0638 14.3847 19.377 14.4239C20.0038 13.9732 21.0027 13.2287 21.0464 13.1249C21.0416 13.0623 20.7769 12.5016 20.5992 12.1407C19.7925 12.66 18.6133 13.4249 18.4956 13.5172C18.4889 13.614 18.474 14.1782 18.478 14.2904Z" fill="#603913"/>
<path d="M21.1423 13.3518C21.1423 13.3518 20.0389 14.3777 19.6334 14.6036L19.2676 14.4997C19.2676 14.4997 20.6806 13.5167 21.0635 13.1076L21.1423 13.3518Z" fill="#FFFD38"/>
<path d="M19.6375 14.6438L19.1816 14.5145L19.2488 14.4679C19.2629 14.4579 20.6631 13.4823 21.0388 13.0807L21.0781 13.0386L21.183 13.3638L21.165 13.3807C21.1199 13.4226 20.0539 14.4119 19.6494 14.6373L19.6375 14.6438ZM19.3533 14.4849L19.6292 14.5633C20.0065 14.3458 20.9579 13.4724 21.1014 13.34L21.0483 13.1754C20.6709 13.5519 19.6306 14.2901 19.3533 14.4849Z" fill="#603913"/>
<path d="M13.6196 6.50247C8.74056 6.50247 4.78516 10.7923 4.78516 16.0841C4.78516 21.376 8.74052 25.6659 13.6196 25.6659C18.4989 25.6659 22.4542 21.376 22.4542 16.0841C22.4542 10.7923 18.4989 6.50247 13.6196 6.50247ZM13.6196 24.629C9.2684 24.629 5.74107 20.8035 5.74107 16.0841C5.74107 11.3649 9.2684 7.53918 13.6196 7.53918C17.9709 7.53918 21.4983 11.3649 21.4983 16.0841C21.4983 20.8035 17.9709 24.629 13.6196 24.629Z" fill="#FFFD38"/>
<path d="M13.6199 25.7038C8.72933 25.7038 4.75049 21.3885 4.75049 16.0842C4.75049 10.78 8.72933 6.46463 13.6199 6.46463C18.5106 6.46463 22.4894 10.78 22.4894 16.0842C22.4894 21.3885 18.5106 25.7038 13.6199 25.7038ZM13.6199 6.54038C8.76782 6.54038 4.82034 10.8217 4.82034 16.0842C4.82034 21.3467 8.76782 25.6281 13.6199 25.6281C18.4721 25.6281 22.4196 21.3468 22.4196 16.0842C22.4196 10.8217 18.4721 6.54038 13.6199 6.54038ZM13.6199 24.6669C9.25633 24.6669 5.70637 20.8169 5.70637 16.0841C5.70637 11.3516 9.25633 7.5013 13.6199 7.5013C17.9834 7.5013 21.5335 11.3516 21.5335 16.0841C21.5335 20.8169 17.9834 24.6669 13.6199 24.6669ZM13.6199 7.57713C9.29482 7.57713 5.77622 11.3934 5.77622 16.0842C5.77622 20.7752 9.29482 24.5912 13.6199 24.5912C17.9449 24.5912 21.4636 20.7752 21.4636 16.0842C21.4636 11.3934 17.9449 7.57713 13.6199 7.57713Z" fill="#603913"/>
<path d="M13.6195 6.75845C8.8708 6.75845 5.021 10.9338 5.021 16.0842C5.021 21.2346 8.87076 25.4099 13.6195 25.4099C18.3684 25.4099 22.2181 21.2346 22.2181 16.0842C22.2181 10.9338 18.3684 6.75845 13.6195 6.75845ZM13.6195 24.8339C9.16406 24.8339 5.55212 20.9166 5.55212 16.0842C5.55212 11.2519 9.16406 7.33448 13.6195 7.33448C18.0752 7.33448 21.687 11.2519 21.687 16.0842C21.687 20.9166 18.0752 24.8339 13.6195 24.8339Z" fill="#FFFD38"/>
<path d="M13.6197 25.4478C8.85917 25.4478 4.98633 21.2473 4.98633 16.0841C4.98633 10.921 8.85917 6.72052 13.6197 6.72052C18.3802 6.72052 22.2531 10.921 22.2531 16.0841C22.2531 21.2473 18.3802 25.4478 13.6197 25.4478ZM13.6197 6.79634C8.8978 6.79634 5.05622 10.9628 5.05622 16.0842C5.05622 21.2055 8.8978 25.372 13.6197 25.372C18.3417 25.372 22.1833 21.2055 22.1833 16.0842C22.1833 10.9628 18.3417 6.79634 13.6197 6.79634ZM13.6197 24.8718C9.15203 24.8718 5.51731 20.9297 5.51731 16.0842C5.51731 11.2387 9.15203 7.29658 13.6197 7.29658C18.0873 7.29658 21.722 11.2387 21.722 16.0842C21.722 20.9297 18.0873 24.8718 13.6197 24.8718ZM13.6197 7.37237C9.19051 7.37237 5.58716 11.2805 5.58716 16.0842C5.58716 20.8879 9.19048 24.796 13.6197 24.796C18.0489 24.796 21.6522 20.8879 21.6522 16.0842C21.6522 11.2805 18.0489 7.37237 13.6197 7.37237Z" fill="#603913"/>
<path d="M5.74463 20.6296L6.11651 21.2535C6.11651 21.2535 6.91299 20.3223 9.25859 20.0438L8.88671 19.3719C8.88671 19.3719 7.14308 19.4198 5.74463 20.6296Z" fill="#FFFD38"/>
<path d="M6.11142 21.3148L5.69824 20.6213L5.72293 20.5999C7.11455 19.3963 8.86844 19.3346 8.88604 19.334L8.90638 19.3334L9.31657 20.0751L9.26238 20.0815C6.96019 20.3549 6.14991 21.2701 6.14198 21.2793L6.11142 21.3148ZM5.79128 20.6378L6.12248 21.1937C6.29075 21.0217 7.1331 20.2693 9.20056 20.0127L8.8676 19.4106C8.67071 19.4213 7.0796 19.5395 5.79128 20.6378Z" fill="#603913"/>
<path d="M5.58545 20.5165L5.69613 20.7086C5.69613 20.7086 6.65858 19.7487 8.93115 19.4678L8.81612 19.2854C8.81612 19.2854 6.96612 19.4031 5.58545 20.5165Z" fill="#FFFD38"/>
<path d="M5.68854 20.7675L5.53857 20.507L5.56435 20.4863C6.93768 19.3786 8.79528 19.2488 8.81383 19.2476L8.83362 19.2463L8.99247 19.4985L8.93488 19.5056C6.69956 19.7817 5.72904 20.7269 5.71951 20.7364L5.68854 20.7675ZM5.63205 20.5262L5.70425 20.6515C5.88818 20.4889 6.87396 19.6969 8.86956 19.4376L8.79846 19.3248C8.59813 19.3416 6.90986 19.5119 5.63205 20.5262Z" fill="#603913"/>
<path d="M6.00146 21.2343L6.10313 21.4068C6.10313 21.4068 6.98385 20.4662 9.32942 20.1879L9.23199 20.0054C9.23199 20.0054 7.38217 20.0823 6.00146 21.2343Z" fill="#FFFD38"/>
<path d="M6.09664 21.4666L5.95459 21.2254L5.97997 21.2041C7.35355 20.0581 9.21185 19.9683 9.2304 19.9675L9.25143 19.9668L9.38639 20.2193L9.33304 20.2255C7.02622 20.4993 6.13622 21.4246 6.12749 21.4338L6.09664 21.4666ZM6.04793 21.2432L6.1103 21.3492C6.28769 21.1846 7.21859 20.4117 9.27217 20.1566L9.21225 20.0445C9.00608 20.0577 7.32262 20.1965 6.04793 21.2432Z" fill="#603913"/>
<path d="M4.71289 15.589V16.368C4.71289 16.368 5.77466 15.6736 8.33545 15.1317V14.3865C8.33545 14.3865 6.7741 14.5389 4.71289 15.589Z" fill="#FFFD38"/>
<path d="M4.67773 16.4349V15.5648L4.69778 15.5546C6.74099 14.5139 8.31655 14.3502 8.33221 14.3487L8.3703 14.345V15.1629L8.34203 15.169C5.81864 15.703 4.74131 16.3935 4.73065 16.4005L4.67773 16.4349ZM4.74763 15.6129V16.3035C4.99203 16.1609 6.09254 15.5706 8.30048 15.1006V14.4287C8.04976 14.4603 6.59361 14.6764 4.74763 15.6129Z" fill="#603913"/>
<path d="M4.65088 15.504V15.7411C4.65088 15.7411 6.07591 14.7166 8.32091 14.4357L8.32011 14.2001C8.32011 14.2001 6.11875 14.4878 4.65088 15.504Z" fill="#FFFD38"/>
<path d="M4.61572 15.8116V15.4833L4.63183 15.472C6.08961 14.463 8.29357 14.1655 8.31566 14.1625L8.3547 14.1575L8.35579 14.4695L8.32468 14.4733C6.11474 14.7499 4.68412 15.7624 4.66991 15.7727L4.61572 15.8116ZM4.68561 15.5247V15.6727C4.96642 15.4873 6.31642 14.6554 8.28565 14.402L8.2851 14.2433C7.9849 14.2879 6.02301 14.6073 4.68561 15.5247Z" fill="#603913"/>
<path d="M4.65283 16.3824V16.6195C4.65283 16.6195 6.07158 15.5719 8.30446 15.3519L8.32002 15.0807C8.32002 15.0807 6.12059 15.3664 4.65283 16.3824Z" fill="#FFFD38"/>
<path d="M4.61768 16.6909V16.3615L4.63378 16.3504C6.09142 15.3413 8.29359 15.0461 8.31572 15.0431L8.35734 15.0378L8.3373 15.3865L8.30743 15.3894C6.11016 15.6061 4.68651 16.6403 4.6723 16.6507L4.61768 16.6909ZM4.68753 16.4033V16.5502C4.96852 16.3607 6.31275 15.5174 8.2712 15.3171L8.28227 15.1242C7.97345 15.1701 6.02087 15.4884 4.68753 16.4033Z" fill="#603913"/>
<path d="M5.35547 12.5274C5.35547 12.5274 5.35547 12.2297 5.40856 12.105C5.46166 11.9802 5.497 11.961 5.497 11.961C5.497 11.961 6.37335 11.8458 8.30285 12.9306L8.27623 13.1609C8.27623 13.1609 6.20519 12.1625 5.46166 12.1818L5.35547 12.5274Z" fill="#FFFD38"/>
<path d="M8.3048 13.2162L8.26182 13.1955C8.24162 13.1857 6.2346 12.2225 5.48664 12.2194L5.32031 12.7609V12.5274C5.32031 12.5148 5.32101 12.2199 5.37666 12.0891C5.43056 11.9622 5.47025 11.933 5.48106 11.9271L5.49252 11.9234C5.49252 11.9234 5.52079 11.9195 5.57837 11.9195C5.81335 11.9195 6.70551 11.99 8.31875 12.8968L8.34029 12.909L8.3048 13.2162ZM5.48299 12.1436C6.19038 12.1436 7.94197 12.9608 8.24725 13.1059L8.26499 12.9521C6.67947 12.0646 5.80835 11.9953 5.57841 11.9953C5.54401 11.9953 5.52122 11.9968 5.50965 11.9977C5.50132 12.0066 5.4754 12.0378 5.44005 12.1209C5.42968 12.1455 5.42135 12.178 5.41482 12.2139L5.43611 12.1446L5.48299 12.1436Z" fill="#603913"/>
<path d="M6.16046 10.7995L5.5498 11.9802C5.5498 11.9802 7.12525 12.2202 8.32892 13.0171L8.2847 11.337C8.2847 11.337 6.62958 10.7706 6.16046 10.7995Z" fill="#FFFD38"/>
<path d="M8.36584 13.0857L8.31099 13.0493C7.12747 12.2659 5.5608 12.0201 5.54513 12.0177L5.49463 12.01L6.13954 10.7628L6.15878 10.7616C6.17094 10.7609 6.1839 10.7605 6.19767 10.7605C6.71046 10.7605 8.23106 11.2788 8.29544 11.3009L8.31917 11.3089L8.36584 13.0857ZM5.60513 11.9511C5.8798 11.9996 7.2249 12.2634 8.2924 12.9488L8.25067 11.3651C8.05198 11.2981 6.66555 10.8364 6.19763 10.8364C6.19216 10.8364 6.18686 10.8364 6.18153 10.8365L5.60513 11.9511Z" fill="#603913"/>
<path d="M6.12509 10.569C6.12509 10.569 6.00119 10.7706 5.99221 10.8091C5.98348 10.8474 5.97461 11.1739 5.97461 11.1739L6.16047 10.7995C6.16047 10.7995 6.83306 10.8379 8.25813 11.385L8.27588 11.1642C8.27588 11.1642 7.02791 10.6458 6.12509 10.569Z" fill="#FFFD38"/>
<path d="M8.28918 11.437L8.24675 11.4208C6.98355 10.9357 6.30713 10.8514 6.18061 10.8391L5.93555 11.3329L5.93993 11.1727C5.94143 11.1175 5.94935 10.8402 5.95873 10.7998C5.96801 10.7594 6.0581 10.6103 6.09629 10.548L6.10761 10.5295L6.1281 10.5313C7.02558 10.6076 8.27607 11.1237 8.28863 11.1288L8.31321 11.139L8.28918 11.437ZM6.14036 10.7604L6.16246 10.7617C6.16929 10.762 6.84282 10.8057 8.22747 11.333L8.23894 11.1896C8.06099 11.1178 6.95924 10.6837 6.14307 10.6086C6.08902 10.6975 6.03184 10.7981 6.0264 10.8184C6.02315 10.8331 6.01877 10.9143 6.01508 11.0129L6.14036 10.7604Z" fill="#603913"/>
<path d="M21.4459 20.6227L21.0742 21.2467C21.0742 21.2467 20.2775 20.3158 17.9321 20.0372L18.3038 19.3653C18.3038 19.3653 20.0475 19.4132 21.4459 20.6227Z" fill="#FFFD38"/>
<path d="M21.0792 21.3082L21.0486 21.2724C21.0407 21.2633 20.2302 20.3483 17.9282 20.0748L17.874 20.0684L18.2842 19.3268L18.3046 19.3274C18.3222 19.3278 20.0761 19.3896 21.4677 20.5931L21.4924 20.6144L21.0792 21.3082ZM17.99 20.0061C20.0574 20.2628 20.8999 21.0152 21.0681 21.1869L21.3993 20.631C20.1104 19.5322 18.5199 19.4144 18.323 19.404L17.99 20.0061Z" fill="#603913"/>
<path d="M21.6055 20.5099L21.4948 20.7021C21.4948 20.7021 20.5322 19.7421 18.2598 19.4612L18.3748 19.2789C18.3748 19.2789 20.2246 19.3964 21.6055 20.5099Z" fill="#FFFD38"/>
<path d="M21.5022 20.7607L21.4712 20.7299C21.4617 20.7204 20.4886 19.7747 18.2558 19.4989L18.1982 19.4918L18.3571 19.2398L18.3769 19.241C18.3954 19.2422 20.2531 19.3721 21.6264 20.4798L21.6521 20.5005L21.5022 20.7607ZM18.3212 19.431C20.3169 19.6902 21.3027 20.4824 21.4866 20.6449L21.5587 20.5197C20.2809 19.5052 18.5926 19.3351 18.3923 19.3182L18.3212 19.431Z" fill="#603913"/>
<path d="M21.1893 21.2275L21.0875 21.4003C21.0875 21.4003 20.2068 20.4596 17.8613 20.1811L17.9586 19.9988C17.9586 19.9988 19.8085 20.0757 21.1893 21.2275Z" fill="#FFFD38"/>
<path d="M21.0937 21.4601L21.063 21.4276C21.0541 21.4181 20.161 20.4925 17.8574 20.219L17.8042 20.2128L17.9389 19.9601L17.9599 19.9609C17.9785 19.9618 19.8369 20.0514 21.2105 21.1976L21.2359 21.2186L21.0937 21.4601ZM17.9183 20.15C19.1055 20.2974 19.9051 20.6171 20.3691 20.8613C20.779 21.0768 21.0025 21.2689 21.0803 21.342L21.1424 21.2366C19.868 20.19 18.1845 20.0511 17.9781 20.0378L17.9183 20.15Z" fill="#603913"/>
<path d="M22.4771 15.5824V16.3614C22.4771 16.3614 21.4153 15.6671 18.8545 15.1251V14.3798C18.8545 14.3798 20.4159 14.5322 22.4771 15.5824Z" fill="#FFFD38"/>
<path d="M22.5122 16.4284L22.4593 16.3938C22.4486 16.387 21.3714 15.6964 18.8481 15.1623L18.8198 15.1562V14.3385L18.8579 14.3422C18.8736 14.3437 20.4491 14.5072 22.4922 15.5481L22.5123 15.5581L22.5122 16.4284ZM18.8897 15.0939C21.0976 15.5641 22.1981 16.1543 22.4424 16.297V15.6064C20.5957 14.6693 19.1402 14.4536 18.8897 14.4221V15.0939Z" fill="#603913"/>
<path d="M22.5396 15.4974V15.7346C22.5396 15.7346 21.1145 14.7101 18.8696 14.4291L18.8703 14.1936C18.8703 14.1936 21.0718 14.4813 22.5396 15.4974Z" fill="#FFFD38"/>
<path d="M22.5744 15.805L22.5202 15.7661C22.506 15.7559 21.0754 14.7433 18.8656 14.4668L18.8345 14.4628L18.8354 14.151L18.8745 14.156C18.8965 14.159 21.1007 14.4563 22.5583 15.4655L22.5744 15.4766V15.805ZM18.9046 14.3955C20.8737 14.6488 22.2237 15.4806 22.5045 15.6662V15.5182C21.1673 14.6006 19.2053 14.2812 18.905 14.2368L18.9046 14.3955Z" fill="#603913"/>
<path d="M22.5378 16.3757V16.6128C22.5378 16.6128 21.1192 15.5653 18.8863 15.3452L18.8706 15.0742C18.8706 15.0742 21.0701 15.3597 22.5378 16.3757Z" fill="#FFFD38"/>
<path d="M22.5726 16.6844L22.518 16.6442C22.5039 16.6338 21.0803 15.5996 18.8831 15.3829L18.8532 15.3799L18.833 15.0312L18.8746 15.0366C18.8967 15.0395 21.0989 15.3347 22.5566 16.3437L22.5727 16.355V16.6844H22.5726ZM18.9193 15.3104C20.8776 15.5108 22.2218 16.3539 22.5028 16.5435V16.3966C21.1694 15.4818 19.2169 15.1636 18.908 15.1178L18.9193 15.3104Z" fill="#603913"/>
<path d="M21.8352 12.5208C21.8352 12.5208 21.8352 12.2232 21.7809 12.0985C21.7266 11.9736 21.6904 11.9545 21.6904 11.9545C21.6904 11.9545 20.7944 11.8392 18.8218 12.9241L18.8489 13.1544C18.8489 13.1544 20.9665 12.156 21.7266 12.1752L21.8352 12.5208Z" fill="#FFFD38"/>
<path d="M18.8203 13.2091L18.7842 12.9023L18.8062 12.8902C20.4553 11.9835 21.3671 11.9129 21.6073 11.9129C21.6659 11.9129 21.6947 11.9168 21.6947 11.9168L21.706 11.9203C21.7171 11.9263 21.7575 11.9553 21.8126 12.0822C21.8697 12.2132 21.8704 12.5083 21.8704 12.5208V12.7493L21.7017 12.2128C20.9373 12.2153 18.8838 13.1794 18.8631 13.1891L18.8203 13.2091ZM18.8598 12.9457L18.8779 13.0996C19.1863 12.9564 20.9808 12.1371 21.7046 12.1371L21.752 12.1379L21.7774 12.2189C21.7704 12.1786 21.7613 12.1418 21.7494 12.1146C21.7138 12.0326 21.6875 12.0011 21.6777 11.9912C21.6658 11.9903 21.6425 11.9888 21.6073 11.9888C21.372 11.9887 20.481 12.0581 18.8598 12.9457Z" fill="#603913"/>
<path d="M21.0119 10.7929L21.6364 11.9736C21.6364 11.9736 20.0257 12.2136 18.7949 13.0104L18.8401 11.3305C18.8401 11.3305 20.5323 10.7641 21.0119 10.7929Z" fill="#FFFD38"/>
<path d="M18.7583 13.0782L18.8059 11.3022L18.8299 11.2942C18.8976 11.2716 20.5354 10.7275 21.014 10.755L21.0329 10.7561L21.6925 12.0035L21.6412 12.0111C21.6251 12.0136 20.0231 12.2594 18.8129 13.0429L18.7583 13.0782ZM18.8744 11.3586L18.8317 12.943C19.9238 12.2566 21.3006 11.9927 21.5808 11.9444L20.9913 10.8299C20.5322 10.8157 19.0787 11.2912 18.8744 11.3586Z" fill="#603913"/>
<path d="M21.048 10.5625C21.048 10.5625 21.1748 10.7641 21.1838 10.8024C21.1928 10.8409 21.202 11.1672 21.202 11.1672L21.0118 10.7929C21.0118 10.7929 20.3241 10.8313 18.8671 11.3784L18.8491 11.1576C18.8491 11.1576 20.125 10.6392 21.048 10.5625Z" fill="#FFFD38"/>
<path d="M18.8363 11.4301L18.812 11.1322L18.8368 11.1222C18.8497 11.1169 20.128 10.601 21.0453 10.5247L21.0655 10.523L21.0769 10.5411C21.116 10.6033 21.2081 10.7526 21.2176 10.7931C21.2271 10.8323 21.2347 11.0885 21.2369 11.1661L21.2412 11.323L20.992 10.8324C20.8648 10.8444 20.1729 10.9281 18.8786 11.4142L18.8363 11.4301ZM18.8862 11.1831L18.898 11.3268C20.3143 10.7992 21.0033 10.7555 21.0101 10.7551L21.0319 10.7538L21.1618 11.0096C21.1579 10.9098 21.1534 10.8271 21.15 10.812C21.1444 10.7915 21.0859 10.6908 21.0306 10.602C20.1954 10.6769 19.0673 11.1117 18.8862 11.1831Z" fill="#603913"/>
<path d="M14.0856 6.45154H13.0713V10.2528H14.0856V6.45154Z" fill="#FFFD38"/>
<path d="M14.1208 10.2907H13.0366V6.4137H14.1208V10.2907ZM13.1065 10.215H14.0509V6.48945H13.1065V10.215Z" fill="#603913"/>
<path d="M13.2912 6.32327H13.0659V10.308H13.2912V6.32327Z" fill="#FFFD38"/>
<path d="M13.3261 10.3458H13.0308V6.28537H13.3261V10.3458ZM13.1006 10.2701H13.2562V6.36116H13.1006V10.2701Z" fill="#603913"/>
<path d="M14.0988 6.32327H13.8735V10.308H14.0988V6.32327Z" fill="#FFFD38"/>
<path d="M14.1337 10.3458H13.8384V6.28537H14.1337V10.3458ZM13.9083 10.2701H14.0638V6.36116H13.9083V10.2701Z" fill="#603913"/>
<path d="M14.0856 21.969H13.0713V25.7702H14.0856V21.969Z" fill="#FFFD38"/>
<path d="M14.1208 25.808H13.0366V21.9311H14.1208V25.808ZM13.1065 25.7323H14.0509V22.0068H13.1065V25.7323Z" fill="#603913"/>
<path d="M13.2912 21.8405H13.0659V25.8253H13.2912V21.8405Z" fill="#FFFD38"/>
<path d="M13.3261 25.8631H13.0308V21.8026H13.3261V25.8631ZM13.1006 25.7873H13.2562V21.8784H13.1006V25.7873Z" fill="#603913"/>
<path d="M14.0988 21.8405H13.8735V25.8253H14.0988V21.8405Z" fill="#FFFD38"/>
<path d="M14.1337 25.8631H13.8384V21.8026H14.1337V25.8631ZM13.9083 25.7873H14.0638V21.8784H13.9083V25.7873Z" fill="#603913"/>
<path d="M8.24414 9.44919H18.842V18.0492C18.842 18.0492 18.5675 19.5385 17.9424 20.3815C16.1277 22.9114 13.566 22.9114 13.566 22.9114C13.566 22.9114 10.7754 22.9446 9.25063 20.3836C8.4881 19.3227 8.30523 18.0162 8.30523 18.0162L8.24414 9.44919Z" fill="white"/>
<path d="M13.5607 22.9303C13.4458 22.9303 10.7291 22.9017 9.23582 20.3936C8.48038 19.3426 8.28977 18.0322 8.28784 18.0188L8.22656 9.43027H18.8594V18.0492C18.8563 18.0678 18.5765 19.5566 17.9559 20.3933C16.157 22.9013 13.5916 22.9303 13.5659 22.9303H13.5607ZM8.26176 9.46812L8.32264 18.0159C8.32428 18.0262 8.51369 19.3271 9.26434 20.3717C10.7482 22.864 13.4465 22.8925 13.5607 22.8925H13.5658C13.5914 22.8925 16.1402 22.8631 17.9285 20.37C18.5439 19.5399 18.822 18.0603 18.8247 18.0455L18.8245 9.46812H8.26176Z" fill="#603913"/>
<path d="M8.46436 9.69626H18.6222V17.9392C18.6222 17.9392 18.3591 19.3666 17.7598 20.1746C16.0204 22.5994 13.5652 22.5994 13.5652 22.5994C13.5652 22.5994 10.8906 22.6311 9.42896 20.1767C8.69824 19.1596 8.52289 17.9075 8.52289 17.9075L8.46436 9.69626Z" fill="#FB1221"/>
<path d="M13.5601 22.6184C13.45 22.6184 10.8458 22.5909 9.41427 20.1868C8.69008 19.1792 8.50736 17.9228 8.5056 17.9102L8.44678 9.67734H18.6395V17.9392C18.6365 17.9573 18.3684 19.3843 17.7735 20.1864C16.0491 22.5905 13.5899 22.6183 13.5652 22.6183H13.5601V22.6184ZM8.48194 9.71523L8.54033 17.9073C8.54183 17.917 8.72331 19.1638 9.44275 20.1648C10.8649 22.5533 13.4508 22.5805 13.5601 22.5805H13.565C13.5896 22.5805 16.0323 22.5524 17.746 20.163C18.3359 19.3677 18.6023 17.9495 18.6049 17.9353L18.6046 9.71519H8.48194V9.71523Z" fill="#603913"/>
<path d="M10.5107 11.9386H16.5991V17.358C16.5991 17.358 16.4414 18.2965 16.0823 18.8278C15.0398 20.422 13.5681 20.422 13.5681 20.422C13.5681 20.422 11.965 20.4428 11.0889 18.829C10.651 18.1604 10.5458 17.3371 10.5458 17.3371L10.5107 11.9386Z" fill="white"/>
<path d="M13.5651 20.441C13.499 20.441 11.9338 20.4227 11.0739 18.8388C10.6393 18.1754 10.5296 17.3481 10.5285 17.3398L10.4932 11.9197H16.6166V17.358C16.6147 17.3709 16.4537 18.3104 16.0963 18.839C15.0608 20.4226 13.583 20.441 13.5681 20.441H13.5651V20.441ZM10.5284 11.9576L10.5633 17.337C10.5642 17.3428 10.6729 18.1612 11.1032 18.818C11.954 20.3851 13.4998 20.4031 13.5652 20.4031V20.4221L13.5679 20.4031C13.5828 20.4031 15.0432 20.3842 16.0681 18.8169C16.4209 18.295 16.5805 17.3639 16.582 17.3546L16.5817 11.9576H10.5284V11.9576Z" fill="#603913"/>
<path d="M14.2646 10.857H12.8721V11.6506H14.2646V10.857Z" fill="#FFFD38"/>
<path d="M14.282 11.6695H12.8545V10.8381H14.282V11.6695ZM12.8894 11.6317H14.2471V10.876H12.8894V11.6317Z" fill="#603913"/>
<path d="M13.2773 10.3451H12.8701V10.9082H13.2773V10.3451Z" fill="#FFFD38"/>
<path d="M13.2947 10.9272H12.8525V10.3261H13.2947V10.9272ZM12.8875 10.8893H13.2598V10.364H12.8875V10.8893Z" fill="#603913"/>
<path d="M14.3563 11.5994H12.7749V11.8042H14.3563V11.5994Z" fill="#FFFD38"/>
<path d="M14.3736 11.8231H12.7573V11.5805H14.3736V11.8231ZM12.7923 11.7852H14.3386V11.6184H12.7923V11.7852Z" fill="#603913"/>
<path d="M13.7719 10.1274H13.3647V10.9082H13.7719V10.1274Z" fill="#FFFD38"/>
<path d="M13.7892 10.9272H13.3472V10.1085H13.7892V10.9272ZM13.3821 10.8893H13.7542V10.1464H13.3821V10.8893Z" fill="#603913"/>
<path d="M14.2548 10.3834H13.8477V10.9082H14.2548V10.3834Z" fill="#FFFD38"/>
<path d="M14.2722 10.9272H13.8301V10.3645H14.2722V10.9272ZM13.865 10.8893H14.2373V10.4024H13.865V10.8893Z" fill="#603913"/>
<path d="M14.3563 10.7674H12.7749V10.9274H14.3563V10.7674Z" fill="#FFFD38"/>
<path d="M14.3736 10.9463H12.7573V10.7485H14.3736V10.9463ZM12.7923 10.9084H14.3386V10.7864H12.7923V10.9084Z" fill="#603913"/>
<path d="M13.9552 11.5386C13.9552 11.3035 13.7795 11.113 13.5628 11.113C13.346 11.113 13.1704 11.3035 13.1704 11.5386C13.1704 11.5594 13.1734 11.5793 13.176 11.5994H13.9494C13.9522 11.5794 13.9552 11.5594 13.9552 11.5386Z" fill="#FFFD38"/>
<path d="M13.9643 11.6184H13.1607L13.1576 11.5949C13.1553 11.5769 13.1528 11.5583 13.1528 11.5386C13.1528 11.2935 13.3367 11.0941 13.5626 11.0941C13.7886 11.0941 13.9725 11.2935 13.9725 11.5386C13.9725 11.5591 13.9699 11.5784 13.9674 11.5971L13.9643 11.6184ZM13.191 11.5805H13.9342C13.9361 11.5663 13.9376 11.5526 13.9376 11.5386C13.9376 11.3144 13.7693 11.1319 13.5626 11.1319C13.3559 11.1319 13.1878 11.3144 13.1878 11.5386C13.1878 11.5526 13.1892 11.5663 13.191 11.5805Z" fill="#603913"/>
<path d="M13.8606 11.5386C13.8606 11.36 13.7271 11.2154 13.5627 11.2154C13.398 11.2154 13.2646 11.3601 13.2646 11.5386C13.2646 11.5594 13.2668 11.5796 13.2703 11.5994H13.855C13.8584 11.5796 13.8606 11.5594 13.8606 11.5386Z" fill="#FFFD38"/>
<path d="M13.8693 11.6184H13.2557L13.2529 11.6029C13.249 11.5799 13.2471 11.5589 13.2471 11.5385C13.2471 11.3499 13.3886 11.1964 13.5624 11.1964C13.7364 11.1964 13.8779 11.3499 13.8779 11.5385C13.8779 11.5588 13.876 11.5799 13.872 11.6029L13.8693 11.6184ZM13.2849 11.5805H13.8402C13.8421 11.5657 13.843 11.552 13.843 11.5385C13.843 11.3708 13.7172 11.2343 13.5625 11.2343C13.4079 11.2343 13.282 11.3708 13.282 11.5385C13.282 11.552 13.283 11.5657 13.2849 11.5805Z" fill="#603913"/>
<path d="M13.3347 10.3578V10.1755H13.2153V10.0699H13.1179V10.1707H13.0338V10.0699H12.9431V10.1707H12.8125V10.3555L13.3347 10.3578Z" fill="#FFFD38"/>
<path d="M13.3521 10.3768L12.7949 10.3743V10.1518H12.9255V10.051H13.0512V10.1518H13.1003V10.051H13.2327V10.1566H13.3521V10.3768ZM12.8299 10.3366L13.3172 10.3388V10.1944H13.1978V10.0888H13.1353V10.1896H13.0163V10.0888H12.9605V10.1896H12.8299V10.3366H12.8299Z" fill="#603913"/>
<path d="M13.8293 10.1202V9.93785H13.7098V9.83228H13.6124V9.93307H13.5283V9.83228H13.4377V9.93307H13.3071V10.1178L13.8293 10.1202Z" fill="#FFFD38"/>
<path d="M13.8467 10.1393L13.2896 10.1367V9.91415H13.4201V9.81332H13.5458V9.91412H13.5949V9.81332H13.7272V9.9189H13.8467V10.1393H13.8467ZM13.3245 10.099L13.8118 10.1013V9.95683H13.6922V9.85125H13.6299V9.95205H13.5109V9.85125H13.4551V9.95205H13.3245L13.3245 10.099Z" fill="#603913"/>
<path d="M14.3123 10.3722V10.1898H14.1927V10.0842H14.0953V10.1851H14.0113V10.0842H13.9206V10.1851H13.79V10.3698L14.3123 10.3722Z" fill="#FFFD38"/>
<path d="M14.3296 10.3912L13.7725 10.3887V10.1661H13.903V10.0653H14.0286V10.1661H14.0778V10.0653H14.2101V10.1709H14.3296V10.3912ZM13.8074 10.351L14.2947 10.3532V10.2087H14.1751V10.1032H14.1128V10.204H13.9936V10.1032H13.938V10.204H13.8074V10.351Z" fill="#603913"/>
<path d="M13.1083 10.4491H13.042V10.6458H13.1083V10.4491Z" fill="#FFFD38"/>
<path d="M13.1258 10.6648H13.0244V10.4301H13.1258V10.6648ZM13.0594 10.6269H13.0909V10.468H13.0594V10.6269Z" fill="#603913"/>
<path d="M13.6435 10.2859H13.4976V10.4443H13.6435V10.2859Z" fill="#FFFD38"/>
<path d="M13.6609 10.4632H13.48V10.2669H13.6609V10.4632ZM13.5149 10.4253H13.626V10.3048H13.5149V10.4253Z" fill="#603913"/>
<path d="M14.0953 10.4491H14.0156V10.6458H14.0953V10.4491Z" fill="#FFFD38"/>
<path d="M14.1127 10.6648H13.998V10.4301H14.1127V10.6648ZM14.033 10.6269H14.0778V10.468H14.033V10.6269Z" fill="#603913"/>
<path d="M10.1582 10.857H8.76562V11.6506H10.1582V10.857Z" fill="#FFFD38"/>
<path d="M10.1755 11.6695H8.74805V10.8381H10.1755V11.6695ZM8.78296 11.6317H10.1406V10.876H8.78296V11.6317Z" fill="#603913"/>
<path d="M9.17086 10.3451H8.76367V10.9082H9.17086V10.3451Z" fill="#FFFD38"/>
<path d="M9.18823 10.9272H8.74609V10.3261H9.18823V10.9272ZM8.781 10.8893H9.15328V10.364H8.781V10.8893Z" fill="#603913"/>
<path d="M10.2497 11.5994H8.66846V11.8042H10.2497V11.5994Z" fill="#FFFD38"/>
<path d="M10.2671 11.8231H8.65088V11.5805H10.2671V11.8231ZM8.68579 11.7852H10.2321V11.6184H8.68579V11.7852Z" fill="#603913"/>
<path d="M9.66534 10.1274H9.2583V10.9082H9.66534V10.1274Z" fill="#FFFD38"/>
<path d="M9.68271 10.9272H9.24072V10.1085H9.68271V10.9272ZM9.27567 10.8893H9.6478V10.1464H9.27567V10.8893Z" fill="#603913"/>
<path d="M10.1484 10.3834H9.74121V10.9082H10.1484V10.3834Z" fill="#FFFD38"/>
<path d="M10.1657 10.9272H9.72363V10.3645H10.1657V10.9272ZM9.75854 10.8893H10.1308V10.4024H9.75854V10.8893Z" fill="#603913"/>
<path d="M10.2497 10.7674H8.66846V10.9274H10.2497V10.7674Z" fill="#FFFD38"/>
<path d="M10.2671 10.9463H8.65088V10.7485H10.2671V10.9463ZM8.68579 10.9084H10.2321V10.7864H8.68579V10.9084Z" fill="#603913"/>
<path d="M9.84873 11.5386C9.84873 11.3035 9.67312 11.113 9.45629 11.113C9.23961 11.113 9.06396 11.3035 9.06396 11.5386C9.06396 11.5594 9.06696 11.5793 9.0697 11.5994H9.84314C9.84577 11.5794 9.84873 11.5594 9.84873 11.5386Z" fill="#FFFD38"/>
<path d="M9.85792 11.6184H9.05431L9.05117 11.5949C9.04883 11.5769 9.04639 11.5583 9.04639 11.5386C9.04639 11.2935 9.23021 11.0941 9.45617 11.0941C9.68213 11.0941 9.8661 11.2935 9.8661 11.5386C9.8661 11.5591 9.8635 11.5784 9.86091 11.5971L9.85792 11.6184ZM9.08462 11.5805H9.82775C9.82965 11.5663 9.83115 11.5526 9.83115 11.5386C9.83115 11.3144 9.66288 11.1319 9.45617 11.1319C9.24945 11.1319 9.08133 11.3144 9.08133 11.5386C9.08133 11.5526 9.08283 11.5663 9.08462 11.5805Z" fill="#603913"/>
<path d="M9.75414 11.5386C9.75414 11.36 9.62068 11.2154 9.4561 11.2154C9.29167 11.2154 9.1582 11.3601 9.1582 11.5386C9.1582 11.5594 9.16039 11.5796 9.16379 11.5994H9.74852C9.75195 11.5796 9.75414 11.5594 9.75414 11.5386Z" fill="#FFFD38"/>
<path d="M9.76289 11.6184H9.14924L9.1465 11.6029C9.14256 11.5799 9.14062 11.5589 9.14062 11.5385C9.14062 11.3499 9.28213 11.1964 9.45598 11.1964C9.62998 11.1964 9.77147 11.3499 9.77147 11.5385C9.77147 11.5588 9.76958 11.5799 9.7656 11.6029L9.76289 11.6184ZM9.17846 11.5805H9.73372C9.73562 11.5657 9.7366 11.552 9.7366 11.5385C9.7366 11.3708 9.61077 11.2343 9.45601 11.2343C9.30141 11.2343 9.17561 11.3708 9.17561 11.5385C9.17561 11.552 9.17656 11.5657 9.17846 11.5805Z" fill="#603913"/>
<path d="M9.22831 10.3578V10.1755H9.1089V10.0699H9.01144V10.1707H8.92741V10.0699H8.83664V10.1707H8.70605V10.3555L9.22831 10.3578Z" fill="#FFFD38"/>
<path d="M9.24564 10.3768L8.68848 10.3743V10.1518H8.81906V10.051H8.94475V10.1518H8.99386V10.051H9.12623V10.1566H9.24564V10.3768ZM8.72342 10.3366L9.21073 10.3388V10.1944H9.09132V10.0888H9.02881V10.1896H8.90984V10.0888H8.854V10.1896H8.72342V10.3366Z" fill="#603913"/>
<path d="M9.7229 10.1202V9.93785H9.60338V9.83228H9.50592V9.93307H9.42186V9.83228H9.33126V9.93307H9.20068V10.1178L9.7229 10.1202Z" fill="#FFFD38"/>
<path d="M9.74027 10.1393L9.18311 10.1367V9.91415H9.31369V9.81332H9.43937V9.91412H9.48853V9.81332H9.62075V9.9189H9.74027V10.1393ZM9.21805 10.099L9.70536 10.1013V9.95683H9.58584V9.85125H9.52347V9.95205H9.40447V9.85125H9.34867V9.95205H9.21809L9.21805 10.099Z" fill="#603913"/>
<path d="M10.2058 10.3722V10.1898H10.0863V10.0842H9.98887V10.1851H9.90481V10.0842H9.81421V10.1851H9.68359V10.3698L10.2058 10.3722Z" fill="#FFFD38"/>
<path d="M10.2232 10.3912L9.66602 10.3887V10.1661H9.7966V10.0653H9.92214V10.1661H9.9714V10.0653H10.1036V10.1709H10.2232V10.3912ZM9.70092 10.351L10.1882 10.3532V10.2087H10.0687V10.1032H10.0063V10.204H9.88719V10.1032H9.83151V10.204H9.70092V10.351Z" fill="#603913"/>
<path d="M9.00201 10.4491H8.93555V10.6458H9.00201V10.4491Z" fill="#FFFD38"/>
<path d="M9.01937 10.6648H8.91797V10.4301H9.01937V10.6648ZM8.95292 10.6269H8.98443V10.468H8.95292V10.6269Z" fill="#603913"/>
<path d="M9.53711 10.2859H9.39111V10.4443H9.53711V10.2859Z" fill="#FFFD38"/>
<path d="M9.55447 10.4632H9.37354V10.2669H9.55447V10.4632ZM9.40844 10.4253H9.51953V10.3048H9.40844V10.4253Z" fill="#603913"/>
<path d="M9.98886 10.4491H9.90918V10.6458H9.98886V10.4491Z" fill="#FFFD38"/>
<path d="M10.0062 10.6648H9.8916V10.4301H10.0062V10.6648ZM9.92655 10.6269H9.97132V10.468H9.92655V10.6269Z" fill="#603913"/>
<path d="M10.1582 15.3306H8.76562V16.1242H10.1582V15.3306Z" fill="#FFFD38"/>
<path d="M10.1755 16.1429H8.74805V15.3115H10.1755V16.1429ZM8.78296 16.105H10.1406V15.3493H8.78296V16.105Z" fill="#603913"/>
<path d="M9.17086 14.8185H8.76367V15.3816H9.17086V14.8185Z" fill="#FFFD38"/>
<path d="M9.18823 15.4006H8.74609V14.7995H9.18823V15.4006ZM8.781 15.3627H9.15328V14.8374H8.781V15.3627Z" fill="#603913"/>
<path d="M10.2497 16.0729H8.66846V16.2776H10.2497V16.0729Z" fill="#FFFD38"/>
<path d="M10.2671 16.2965H8.65088V16.0538H10.2671V16.2965ZM8.68579 16.2587H10.2321V16.0917H8.68579V16.2587Z" fill="#603913"/>
<path d="M9.66534 14.6009H9.2583V15.3816H9.66534V14.6009Z" fill="#FFFD38"/>
<path d="M9.68271 15.4006H9.24072V14.582H9.68271V15.4006ZM9.27567 15.3627H9.6478V14.6199H9.27567V15.3627Z" fill="#603913"/>
<path d="M10.1484 14.8569H9.74121V15.3816H10.1484V14.8569Z" fill="#FFFD38"/>
<path d="M10.1657 15.4006H9.72363V14.838H10.1657V15.4006ZM9.75854 15.3627H10.1308V14.8759H9.75854V15.3627Z" fill="#603913"/>
<path d="M10.2497 15.2408H8.66846V15.4009H10.2497V15.2408Z" fill="#FFFD38"/>
<path d="M10.2671 15.4198H8.65088V15.2219H10.2671V15.4198ZM8.68579 15.3819H10.2321V15.2598H8.68579V15.3819Z" fill="#603913"/>
<path d="M9.84873 16.0119C9.84873 15.7769 9.67312 15.5865 9.45629 15.5865C9.23961 15.5865 9.06396 15.777 9.06396 16.0119C9.06396 16.0328 9.06696 16.0528 9.0697 16.0729H9.84314C9.84577 16.0528 9.84873 16.0328 9.84873 16.0119Z" fill="#FFFD38"/>
<path d="M9.85792 16.0918H9.05431L9.05132 16.0685C9.04887 16.0504 9.04639 16.0318 9.04639 16.0119C9.04639 15.7669 9.23021 15.5675 9.45617 15.5675C9.68213 15.5675 9.8661 15.7668 9.8661 16.0119C9.8661 16.0325 9.86336 16.0519 9.8608 16.0707L9.85792 16.0918ZM9.08462 16.0539H9.8279C9.82969 16.0398 9.83119 16.026 9.83119 16.0119C9.83119 15.7879 9.66292 15.6054 9.4562 15.6054C9.24949 15.6054 9.08137 15.7879 9.08137 16.0119C9.08133 16.026 9.08283 16.0398 9.08462 16.0539Z" fill="#603913"/>
<path d="M9.75414 16.0119C9.75414 15.8334 9.62068 15.6887 9.4561 15.6887C9.29167 15.6887 9.1582 15.8335 9.1582 16.0119C9.1582 16.0328 9.16039 16.0531 9.16379 16.0729H9.74852C9.75195 16.0531 9.75414 16.0328 9.75414 16.0119Z" fill="#FFFD38"/>
<path d="M9.76289 16.0918H9.14924L9.1465 16.0762C9.14256 16.0534 9.14062 16.0324 9.14062 16.012C9.14062 15.8234 9.28213 15.6698 9.45598 15.6698C9.62998 15.6698 9.77147 15.8234 9.77147 16.012C9.77147 16.0324 9.76958 16.0534 9.7656 16.0762L9.76289 16.0918ZM9.17846 16.0539H9.73372C9.73562 16.0392 9.7366 16.0254 9.7366 16.012C9.7366 15.8443 9.61077 15.7077 9.45601 15.7077C9.30141 15.7077 9.17561 15.8443 9.17561 16.012C9.17561 16.0254 9.17656 16.0392 9.17846 16.0539Z" fill="#603913"/>
<path d="M9.22831 14.8312V14.6489H9.1089V14.5432H9.01144V14.6441H8.92741V14.5432H8.83664V14.6441H8.70605V14.8288L9.22831 14.8312Z" fill="#FFFD38"/>
<path d="M9.24564 14.8503L8.68848 14.8478V14.6252H8.81906V14.5243H8.94475V14.6252H8.99386V14.5243H9.12623V14.63H9.24564V14.8503ZM8.72342 14.8099L9.21073 14.8122V14.6678H9.09132V14.5621H9.02881V14.6631H8.90984V14.5621H8.854V14.6631H8.72342V14.8099Z" fill="#603913"/>
<path d="M9.7229 14.5937V14.4112H9.60338V14.3058H9.50592V14.4065H9.42186V14.3058H9.33126V14.4065H9.20068V14.5913L9.7229 14.5937Z" fill="#FFFD38"/>
<path d="M9.74027 14.6128L9.18311 14.6101V14.3875H9.31369V14.2867H9.43937V14.3875H9.48853V14.2867H9.62075V14.3923H9.74027V14.6128ZM9.21805 14.5725L9.70536 14.5746V14.4301H9.58584V14.3246H9.52347V14.4254H9.40447V14.3246H9.34867V14.4254H9.21809L9.21805 14.5725Z" fill="#603913"/>
<path d="M10.2058 14.8457V14.6634H10.0863V14.5577H9.98887V14.6585H9.90481V14.5577H9.81421V14.6585H9.68359V14.8434L10.2058 14.8457Z" fill="#FFFD38"/>
<path d="M10.2232 14.8647L9.66602 14.8622V14.6396H9.7966V14.5388H9.92214V14.6396H9.9714V14.5388H10.1036V14.6445H10.2232V14.8647ZM9.70092 14.8244L10.1882 14.8266V14.6823H10.0687V14.5766H10.0063V14.6774H9.88719V14.5766H9.83151V14.6774H9.70092V14.8244Z" fill="#603913"/>
<path d="M9.00201 14.9224H8.93555V15.1192H9.00201V14.9224Z" fill="#FFFD38"/>
<path d="M9.01937 15.1381H8.91797V14.9034H9.01937V15.1381ZM8.95292 15.1003H8.98443V14.9413H8.95292V15.1003Z" fill="#603913"/>
<path d="M9.53711 14.7593H9.39111V14.9176H9.53711V14.7593Z" fill="#FFFD38"/>
<path d="M9.55447 14.9366H9.37354V14.7403H9.55447V14.9366ZM9.40844 14.8987H9.51953V14.7783H9.40844V14.8987Z" fill="#603913"/>
<path d="M9.98886 14.9224H9.90918V15.1192H9.98886V14.9224Z" fill="#FFFD38"/>
<path d="M10.0062 15.1381H9.8916V14.9034H10.0062V15.1381ZM9.92655 15.1003H9.97132V14.9413H9.92655V15.1003Z" fill="#603913"/>
<path d="M18.3188 10.857H16.9263V11.6506H18.3188V10.857Z" fill="#FFFD38"/>
<path d="M18.3362 11.6695H16.9087V10.8381H18.3362V11.6695ZM16.9436 11.6317H18.3013V10.876H16.9436V11.6317Z" fill="#603913"/>
<path d="M17.331 10.3451H16.9238V10.9082H17.331V10.3451Z" fill="#FFFD38"/>
<path d="M17.3482 10.9272H16.9062V10.3261H17.3482V10.9272ZM16.9412 10.8893H17.3133V10.364H16.9412V10.8893Z" fill="#603913"/>
<path d="M18.4099 11.5994H16.8286V11.8042H18.4099V11.5994Z" fill="#FFFD38"/>
<path d="M18.4274 11.8231H16.811V11.5805H18.4274V11.8231ZM16.8459 11.7852H18.3924V11.6184H16.8459V11.7852Z" fill="#603913"/>
<path d="M17.8255 10.1274H17.4185V10.9082H17.8255V10.1274Z" fill="#FFFD38"/>
<path d="M17.843 10.9272H17.4009V10.1085H17.843V10.9272ZM17.4358 10.8893H17.8081V10.1464H17.4358V10.8893Z" fill="#603913"/>
<path d="M18.3086 10.3834H17.9014V10.9082H18.3086V10.3834Z" fill="#FFFD38"/>
<path d="M18.3259 10.9272H17.8838V10.3645H18.3259V10.9272ZM17.9187 10.8893H18.291V10.4024H17.9187V10.8893Z" fill="#603913"/>
<path d="M18.4099 10.7674H16.8286V10.9274H18.4099V10.7674Z" fill="#FFFD38"/>
<path d="M18.4274 10.9463H16.811V10.7485H18.4274V10.9463ZM16.8459 10.9084H18.3924V10.7864H16.8459V10.9084Z" fill="#603913"/>
<path d="M18.0085 11.5386C18.0085 11.3035 17.8328 11.113 17.6161 11.113C17.3994 11.113 17.2236 11.3035 17.2236 11.5386C17.2236 11.5594 17.2266 11.5793 17.2294 11.5994H18.0028C18.0055 11.5794 18.0085 11.5594 18.0085 11.5386Z" fill="#FFFD38"/>
<path d="M18.018 11.6184H17.2146L17.2123 11.6022C17.2093 11.5798 17.2065 11.5599 17.2065 11.5386C17.2065 11.2935 17.3904 11.0941 17.6163 11.0941C17.8423 11.0941 18.0263 11.2935 18.0263 11.5386C18.0263 11.5591 18.0237 11.5784 18.0211 11.5971L18.018 11.6184ZM17.2447 11.5805H17.9879C17.9898 11.5663 17.9913 11.5526 17.9913 11.5386C17.9913 11.3144 17.823 11.1319 17.6163 11.1319C17.4096 11.1319 17.2415 11.3144 17.2415 11.5386C17.2415 11.5526 17.2428 11.5664 17.2447 11.5805Z" fill="#603913"/>
<path d="M17.9144 11.5386C17.9144 11.36 17.7809 11.2154 17.6164 11.2154C17.4518 11.2154 17.3184 11.3601 17.3184 11.5386C17.3184 11.5594 17.3206 11.5796 17.3241 11.5994H17.9087C17.9122 11.5796 17.9144 11.5594 17.9144 11.5386Z" fill="#FFFD38"/>
<path d="M17.923 11.6184H17.3094L17.3067 11.6029C17.3027 11.5799 17.3008 11.5588 17.3008 11.5385C17.3008 11.3499 17.4423 11.1964 17.6161 11.1964C17.7901 11.1964 17.9316 11.3499 17.9316 11.5385C17.9316 11.5589 17.9297 11.5799 17.9258 11.6029L17.923 11.6184ZM17.3386 11.5805H17.8939C17.8958 11.5657 17.8967 11.552 17.8967 11.5385C17.8967 11.3708 17.7709 11.2343 17.6162 11.2343C17.4616 11.2343 17.3358 11.3708 17.3358 11.5385C17.3357 11.552 17.3367 11.5657 17.3386 11.5805Z" fill="#603913"/>
<path d="M17.3885 10.3578V10.1755H17.2689V10.0699H17.1716V10.1707H17.0876V10.0699H16.9968V10.1707H16.8662V10.3555L17.3885 10.3578Z" fill="#FFFD38"/>
<path d="M17.4058 10.3768L16.8486 10.3743V10.1518H16.9792V10.051H17.1049V10.1518H17.154V10.051H17.2862V10.1566H17.4058V10.3768ZM16.8836 10.3366L17.3709 10.3388V10.1944H17.2513V10.0888H17.189V10.1896H17.07V10.0888H17.0142V10.1896H16.8836V10.3366Z" fill="#603913"/>
<path d="M17.8829 10.1202V9.93785H17.7635V9.83228H17.6662V9.93307H17.5821V9.83228H17.4913V9.93307H17.3608V10.1178L17.8829 10.1202Z" fill="#FFFD38"/>
<path d="M17.9004 10.1393L17.3433 10.1367V9.91415H17.4738V9.81332H17.5994V9.91412H17.6486V9.81332H17.7809V9.9189H17.9004V10.1393ZM17.3782 10.099L17.8655 10.1013V9.95683H17.7459V9.85125H17.6836V9.95205H17.5644V9.85125H17.5088V9.95205H17.3782V10.099Z" fill="#603913"/>
<path d="M18.3663 10.3722V10.1898H18.2469V10.0842H18.1496V10.1851H18.0655V10.0842H17.9747V10.1851H17.8442V10.3698L18.3663 10.3722Z" fill="#FFFD38"/>
<path d="M18.3838 10.3912L17.8267 10.3887V10.1661H17.9571V10.0653H18.0828V10.1661H18.1319V10.0653H18.2643V10.1709H18.3838V10.3912ZM17.8616 10.351L18.3489 10.3532V10.2087H18.2294V10.1032H18.1668V10.204H18.0478V10.1032H17.992V10.204H17.8616V10.351Z" fill="#603913"/>
<path d="M17.1622 10.4491H17.0957V10.6458H17.1622V10.4491Z" fill="#FFFD38"/>
<path d="M17.1795 10.6648H17.0781V10.4301H17.1795V10.6648ZM17.1131 10.6269H17.1446V10.468H17.1131V10.6269Z" fill="#603913"/>
<path d="M17.6978 10.2859H17.5518V10.4443H17.6978V10.2859Z" fill="#FFFD38"/>
<path d="M17.7152 10.4632H17.5342V10.2669H17.7152V10.4632ZM17.5691 10.4253H17.6802V10.3048H17.5691V10.4253Z" fill="#603913"/>
<path d="M18.1489 10.4491H18.0693V10.6458H18.1489V10.4491Z" fill="#FFFD38"/>
<path d="M18.1664 10.6648H18.0518V10.4301H18.1664V10.6648ZM18.0867 10.6269H18.1315V10.468H18.0867V10.6269Z" fill="#603913"/>
<path d="M18.3188 15.3306H16.9263V16.1242H18.3188V15.3306Z" fill="#FFFD38"/>
<path d="M18.3362 16.1429H16.9087V15.3115H18.3362V16.1429ZM16.9436 16.105H18.3013V15.3493H16.9436V16.105Z" fill="#603913"/>
<path d="M17.331 14.8185H16.9238V15.3816H17.331V14.8185Z" fill="#FFFD38"/>
<path d="M17.3482 15.4006H16.9062V14.7995H17.3482V15.4006ZM16.9412 15.3627H17.3133V14.8374H16.9412V15.3627Z" fill="#603913"/>
<path d="M18.4099 16.0729H16.8286V16.2776H18.4099V16.0729Z" fill="#FFFD38"/>
<path d="M18.4274 16.2965H16.811V16.0538H18.4274V16.2965ZM16.8459 16.2587H18.3924V16.0917H16.8459V16.2587Z" fill="#603913"/>
<path d="M17.8255 14.6009H17.4185V15.3816H17.8255V14.6009Z" fill="#FFFD38"/>
<path d="M17.843 15.4006H17.4009V14.582H17.843V15.4006ZM17.4358 15.3627H17.8081V14.6199H17.4358V15.3627Z" fill="#603913"/>
<path d="M18.3086 14.8569H17.9014V15.3816H18.3086V14.8569Z" fill="#FFFD38"/>
<path d="M18.3259 15.4006H17.8838V14.838H18.3259V15.4006ZM17.9187 15.3627H18.291V14.8759H17.9187V15.3627Z" fill="#603913"/>
<path d="M18.4099 15.2408H16.8286V15.4009H18.4099V15.2408Z" fill="#FFFD38"/>
<path d="M18.4274 15.4198H16.811V15.2219H18.4274V15.4198ZM16.8459 15.3819H18.3924V15.2598H16.8459V15.3819Z" fill="#603913"/>
<path d="M18.0085 16.0119C18.0085 15.7769 17.8328 15.5865 17.6161 15.5865C17.3994 15.5865 17.2236 15.777 17.2236 16.0119C17.2236 16.0328 17.2266 16.0528 17.2294 16.0729H18.0028C18.0055 16.0528 18.0085 16.0328 18.0085 16.0119Z" fill="#FFFD38"/>
<path d="M18.018 16.0918H17.2146L17.2123 16.0756C17.2093 16.0534 17.2065 16.0333 17.2065 16.0119C17.2065 15.7669 17.3904 15.5675 17.6163 15.5675C17.8423 15.5675 18.0263 15.7668 18.0263 16.0119C18.0263 16.0325 18.0235 16.0519 18.0209 16.0709L18.018 16.0918ZM17.2447 16.0539H17.9881C17.9898 16.0398 17.9913 16.026 17.9913 16.0119C17.9913 15.7879 17.823 15.6054 17.6163 15.6054C17.4096 15.6054 17.2415 15.7879 17.2415 16.0119C17.2415 16.0262 17.2428 16.0398 17.2447 16.0539Z" fill="#603913"/>
<path d="M17.9144 16.0119C17.9144 15.8334 17.7809 15.6887 17.6164 15.6887C17.4518 15.6887 17.3184 15.8335 17.3184 16.0119C17.3184 16.0328 17.3206 16.0531 17.3241 16.0729H17.9087C17.9122 16.0531 17.9144 16.0328 17.9144 16.0119Z" fill="#FFFD38"/>
<path d="M17.923 16.0918H17.3094L17.3067 16.0762C17.3027 16.0534 17.3008 16.0324 17.3008 16.012C17.3008 15.8234 17.4423 15.6698 17.6161 15.6698C17.7901 15.6698 17.9316 15.8234 17.9316 16.012C17.9316 16.0324 17.9297 16.0534 17.9258 16.0762L17.923 16.0918ZM17.3386 16.0539H17.8939C17.8958 16.0392 17.8967 16.0254 17.8967 16.012C17.8967 15.8443 17.7709 15.7077 17.6162 15.7077C17.4616 15.7077 17.3358 15.8443 17.3358 16.012C17.3357 16.0254 17.3367 16.0392 17.3386 16.0539Z" fill="#603913"/>
<path d="M17.3885 14.8312V14.6489H17.2689V14.5432H17.1716V14.6441H17.0876V14.5432H16.9968V14.6441H16.8662V14.8288L17.3885 14.8312Z" fill="#FFFD38"/>
<path d="M17.4058 14.8503L16.8486 14.8478V14.6252H16.9792V14.5243H17.1049V14.6252H17.154V14.5243H17.2862V14.63H17.4058V14.8503ZM16.8836 14.8099L17.3709 14.8122V14.6678H17.2513V14.5621H17.189V14.6631H17.07V14.5621H17.0142V14.6631H16.8836V14.8099Z" fill="#603913"/>
<path d="M17.8829 14.5937V14.4112H17.7635V14.3058H17.6662V14.4065H17.5821V14.3058H17.4913V14.4065H17.3608V14.5913L17.8829 14.5937Z" fill="#FFFD38"/>
<path d="M17.9004 14.6128L17.3433 14.6101V14.3875H17.4738V14.2867H17.5994V14.3875H17.6486V14.2867H17.7809V14.3923H17.9004V14.6128ZM17.3782 14.5725L17.8655 14.5746V14.4301H17.7459V14.3246H17.6836V14.4254H17.5644V14.3246H17.5088V14.4254H17.3782V14.5725Z" fill="#603913"/>
<path d="M18.3663 14.8457V14.6634H18.2469V14.5577H18.1496V14.6585H18.0655V14.5577H17.9747V14.6585H17.8442V14.8434L18.3663 14.8457Z" fill="#FFFD38"/>
<path d="M18.3838 14.8647L17.8267 14.8622V14.6396H17.9571V14.5388H18.0828V14.6396H18.1319V14.5388H18.2643V14.6445H18.3838V14.8647ZM17.8616 14.8244L18.3489 14.8266V14.6823H18.2294V14.5766H18.1668V14.6774H18.0478V14.5766H17.992V14.6774H17.8616V14.8244Z" fill="#603913"/>
<path d="M17.1622 14.9224H17.0957V15.1192H17.1622V14.9224Z" fill="#FFFD38"/>
<path d="M17.1795 15.1381H17.0781V14.9034H17.1795V15.1381ZM17.1131 15.1003H17.1446V14.9413H17.1131V15.1003Z" fill="#603913"/>
<path d="M17.6978 14.7593H17.5518V14.9176H17.6978V14.7593Z" fill="#FFFD38"/>
<path d="M17.7152 14.9366H17.5342V14.7403H17.7152V14.9366ZM17.5691 14.8987H17.6802V14.7783H17.5691V14.8987Z" fill="#603913"/>
<path d="M18.1489 14.9224H18.0693V15.1192H18.1489V14.9224Z" fill="#FFFD38"/>
<path d="M18.1664 15.1381H18.0518V14.9034H18.1664V15.1381ZM18.0867 15.1003H18.1315V14.9413H18.0867V15.1003Z" fill="#603913"/>
<path d="M16.6331 21.0818L15.6484 20.0138L16.1658 19.4526L17.1504 20.5206L16.6331 21.0818Z" fill="#FFFD38"/>
<path d="M16.6329 21.1087L16.6205 21.0954L15.6235 20.0138L16.1655 19.426L16.178 19.4393L17.1749 20.5206L17.1626 20.5342L16.6329 21.1087ZM15.6729 20.0138L16.6329 21.0552L17.1255 20.5206L16.1655 19.4796L15.6729 20.0138Z" fill="#603913"/>
<path d="M16.4188 19.7995L16.1309 19.4873L16.4981 19.089L16.786 19.4013L16.4188 19.7995Z" fill="#FFFD38"/>
<path d="M16.4186 19.8262L16.106 19.4873L16.4979 19.0622L16.8105 19.4012L16.4186 19.8262ZM16.1553 19.4873L16.4185 19.7726L16.7611 19.4012L16.4978 19.1157L16.1553 19.4873Z" fill="#603913"/>
<path d="M16.5973 21.2606L15.479 20.0479L15.6126 19.903L16.7309 21.1159L16.5973 21.2606Z" fill="#FFFD38"/>
<path d="M16.5974 21.2872L16.585 21.2739L15.4546 20.0479L15.6127 19.8762L15.6252 19.8895L16.7556 21.1158L16.5974 21.2872ZM15.504 20.0479L16.5974 21.2337L16.7061 21.1159L15.6127 19.9298L15.504 20.0479Z" fill="#603913"/>
<path d="M16.7679 20.1787L16.48 19.8666L16.9891 19.3144L17.2769 19.6267L16.7679 20.1787Z" fill="#FFFD38"/>
<path d="M16.7682 20.2057L16.7558 20.1923L16.4556 19.8666L16.9894 19.2878L17.3019 19.6267L16.7682 20.2057ZM16.5049 19.8666L16.7682 20.1521L17.2525 19.6267L16.9894 19.3414L16.5049 19.8666Z" fill="#603913"/>
<path d="M17.1102 20.5494L16.8223 20.2371L17.1645 19.8659L17.4523 20.1782L17.1102 20.5494Z" fill="#FFFD38"/>
<path d="M17.11 20.576L17.0976 20.5626L16.7974 20.237L17.1643 19.8392L17.4768 20.1781L17.4645 20.1918L17.11 20.576ZM16.8467 20.2371L17.11 20.5224L17.4274 20.1782L17.1643 19.8928L16.8467 20.2371Z" fill="#603913"/>
<path d="M17.1694 20.6405L16.0513 19.4278L16.1555 19.3147L17.2737 20.5274L17.1694 20.6405Z" fill="#FFFD38"/>
<path d="M17.1692 20.6674L17.1568 20.6541L16.0264 19.4278L16.1553 19.2879L16.1678 19.3014L17.2982 20.5274L17.1692 20.6674ZM16.0757 19.4278L17.1692 20.6138L17.2487 20.5274L16.1553 19.3415L16.0757 19.4278Z" fill="#603913"/>
<path d="M16.4866 20.7651C16.6398 20.5988 16.6398 20.3294 16.4866 20.163C16.3333 19.997 16.0848 19.997 15.9316 20.1633C15.9181 20.1778 15.9072 20.1944 15.896 20.2104L16.4429 20.8036C16.4578 20.7918 16.4729 20.7799 16.4866 20.7651Z" fill="#FFFD38"/>
<path d="M16.4414 20.8287L16.4306 20.8172L15.873 20.2122L15.8859 20.1938C15.896 20.179 15.9065 20.1639 15.9193 20.1497C15.9968 20.0659 16.0997 20.0196 16.2093 20.0196C16.3187 20.0196 16.4216 20.0659 16.4991 20.15C16.6588 20.3231 16.6588 20.6052 16.4991 20.7784C16.4856 20.7929 16.4711 20.8047 16.4571 20.816L16.4414 20.8287ZM15.9192 20.2086L16.4447 20.7787C16.4552 20.7701 16.4652 20.7615 16.4743 20.7515C16.6206 20.5931 16.6206 20.3353 16.4743 20.1766C16.4036 20.0998 16.3093 20.0575 16.2093 20.0575C16.1091 20.0575 16.0148 20.0998 15.9441 20.1766C15.935 20.1864 15.9271 20.1974 15.9192 20.2086Z" fill="#603913"/>
<path d="M16.42 20.6926C16.5363 20.5665 16.5363 20.3619 16.42 20.2356C16.3036 20.1095 16.1149 20.1095 15.9985 20.2356C15.985 20.2504 15.9733 20.2663 15.9629 20.2829L16.3764 20.7314C16.3916 20.7201 16.4064 20.7074 16.42 20.6926Z" fill="#FFFD38"/>
<path d="M16.3742 20.7556L15.9404 20.2853L15.9485 20.2725C15.9601 20.2536 15.9728 20.2367 15.9861 20.2222C16.0458 20.1577 16.1251 20.1219 16.2094 20.1219C16.2936 20.1219 16.3729 20.1577 16.4325 20.2222C16.5553 20.3557 16.5553 20.5727 16.4325 20.7059C16.4192 20.7204 16.404 20.734 16.3863 20.747L16.3742 20.7556ZM15.9857 20.2808L16.3783 20.7065C16.3892 20.6976 16.3989 20.6887 16.4078 20.6792C16.5169 20.5605 16.5169 20.3675 16.4077 20.2489C16.3547 20.1915 16.2843 20.1598 16.2094 20.1598C16.1343 20.1598 16.0639 20.1915 16.0109 20.2492C16.002 20.2586 15.9936 20.2693 15.9857 20.2808Z" fill="#603913"/>
<path d="M16.8184 19.4544L16.9373 19.3254L16.8528 19.2339L16.9216 19.1591L16.8528 19.0844L16.7871 19.1557L16.7276 19.0912L16.7933 19.02L16.7292 18.9503L16.6634 19.0217L16.5712 18.9216L16.4507 19.0521L16.8184 19.4544Z" fill="#FFFD38"/>
<path d="M16.8183 19.4814L16.4258 19.0522L16.571 18.8948L16.6634 18.995L16.729 18.9237L16.8178 19.0201L16.7522 19.0913L16.7869 19.129L16.8526 19.0578L16.9461 19.1592L16.8773 19.234L16.9618 19.3254L16.8183 19.4814ZM16.4752 19.0523L16.8183 19.4275L16.9124 19.3254L16.828 19.2339L16.8967 19.1591L16.8527 19.1113L16.7869 19.1825L16.7028 19.0912L16.7685 19.02L16.729 18.9773L16.6634 19.0486L16.571 18.9484L16.4752 19.0523Z" fill="#603913"/>
<path d="M17.3228 19.6657L17.4417 19.5367L17.3572 19.4452L17.426 19.3705L17.3572 19.2957L17.2914 19.3671L17.2321 19.3026L17.2977 19.2312L17.2336 19.1617L17.1679 19.233L17.0755 19.1329L16.9551 19.2635L17.3228 19.6657Z" fill="#FFFD38"/>
<path d="M17.3226 19.6927L16.9302 19.2635L17.0754 19.106L17.1677 19.2062L17.2334 19.135L17.3222 19.2312L17.2566 19.3026L17.2914 19.3403L17.357 19.2691L17.4507 19.3705L17.3818 19.4452L17.4662 19.5367L17.3226 19.6927ZM16.9795 19.2636L17.3226 19.6388L17.4168 19.5367L17.3323 19.4452L17.4012 19.3705L17.357 19.3227L17.2914 19.3939L17.2071 19.3026L17.2728 19.2312L17.2333 19.1886L17.1677 19.2598L17.0753 19.1596L16.9795 19.2636Z" fill="#603913"/>
<path d="M17.5001 20.2146L17.6189 20.0855L17.5345 19.9938L17.6034 19.9192L17.5345 19.8446L17.4688 19.9158L17.4093 19.8514L17.4751 19.78L17.4108 19.7105L17.3452 19.7818L17.2529 19.6815L17.1323 19.8123L17.5001 20.2146Z" fill="#FFFD38"/>
<path d="M17.4999 20.2412L17.4874 20.2279L17.1074 19.8121L17.2526 19.6548L17.345 19.7549L17.4106 19.6835L17.4996 19.78L17.4338 19.8514L17.4686 19.889L17.5342 19.8176L17.6278 19.9191L17.5589 19.9938L17.6434 20.0855L17.4999 20.2412ZM17.1568 19.8123L17.4999 20.1876L17.594 20.0855L17.5095 19.9937L17.5784 19.9191L17.5342 19.8712L17.4686 19.9425L17.3844 19.8513L17.4502 19.78L17.4106 19.7371L17.345 19.8084L17.2526 19.7084L17.1568 19.8123Z" fill="#603913"/>
<path d="M16.4703 19.4843L16.4233 19.4334L16.5518 19.2943L16.5987 19.3452L16.4703 19.4843Z" fill="#FFFD38"/>
<path d="M16.4701 19.5113L16.3984 19.4336L16.5515 19.2677L16.6232 19.3452L16.4701 19.5113ZM16.4478 19.4336L16.4701 19.4577L16.5738 19.3452L16.5515 19.3212L16.4478 19.4336Z" fill="#603913"/>
<path d="M16.9806 19.7525L16.8774 19.6406L16.9806 19.5286L17.0839 19.6406L16.9806 19.7525Z" fill="#FFFD38"/>
<path d="M16.9804 19.7794L16.8525 19.6406L16.9804 19.5018L17.1084 19.6406L16.9804 19.7794ZM16.9019 19.6406L16.9804 19.7259L17.059 19.6406L16.9804 19.5554L16.9019 19.6406Z" fill="#603913"/>
<path d="M17.1681 20.2412L17.1118 20.1802L17.2401 20.0411L17.2965 20.1021L17.1681 20.2412Z" fill="#FFFD38"/>
<path d="M17.1678 20.2681L17.0869 20.1802L17.2399 20.0142L17.3209 20.1021L17.1678 20.2681ZM17.1363 20.1802L17.1678 20.2146L17.2715 20.1021L17.2399 20.0677L17.1363 20.1802Z" fill="#603913"/>
<path d="M11.53 19.9648L10.5451 21.0327L10.0278 20.4715L11.0126 19.4035L11.53 19.9648Z" fill="#FFFD38"/>
<path d="M10.5451 21.0596L10.5327 21.0463L10.0029 20.4715L10.0152 20.4581L11.0123 19.3769L11.5545 19.9647L11.5422 19.978L10.5451 21.0596ZM10.0523 20.4715L10.5451 21.0061L11.505 19.9648L11.0123 19.4305L10.0523 20.4715Z" fill="#603913"/>
<path d="M10.3474 20.1974L10.0594 20.5094L9.69238 20.1113L9.98016 19.799L10.3474 20.1974Z" fill="#FFFD38"/>
<path d="M10.0593 20.5363L10.0468 20.523L9.66748 20.1112L9.97995 19.7723L10.3719 20.1973L10.0593 20.5363ZM9.71689 20.1113L10.0593 20.4827L10.3225 20.1974L9.97998 19.8259L9.71689 20.1113Z" fill="#603913"/>
<path d="M11.6945 20.0032L10.5763 21.2159L10.4429 21.0712L11.561 19.8585L11.6945 20.0032Z" fill="#FFFD38"/>
<path d="M10.5761 21.2429L10.418 21.0712L11.5608 19.8316L11.719 20.0033L11.7067 20.0166L10.5761 21.2429ZM10.4673 21.0712L10.5761 21.1893L11.6696 20.0032L11.5608 19.8851L10.4673 21.0712Z" fill="#603913"/>
<path d="M10.6973 19.8179L10.4094 20.1302L9.90039 19.5781L10.1883 19.2659L10.6973 19.8179Z" fill="#FFFD38"/>
<path d="M10.4092 20.1568L10.3968 20.1435L9.87549 19.5782L10.1881 19.2391L10.7218 19.8179L10.4092 20.1568ZM9.92486 19.5782L10.4092 20.1033L10.6724 19.8179L10.1881 19.2927L9.92486 19.5782Z" fill="#603913"/>
<path d="M11.0387 19.4475L10.7508 19.7596L10.4087 19.3887L10.6966 19.0764L11.0387 19.4475Z" fill="#FFFD38"/>
<path d="M10.7507 19.7865L10.3838 19.3887L10.6964 19.0495L11.0632 19.4474L10.7507 19.7865ZM10.4332 19.3887L10.7507 19.7329L11.0138 19.4474L10.6964 19.103L10.4332 19.3887Z" fill="#603913"/>
<path d="M11.1234 19.3833L10.0051 20.5961L9.90088 20.483L11.019 19.2702L11.1234 19.3833Z" fill="#FFFD38"/>
<path d="M10.0049 20.6227L9.87598 20.483L9.88825 20.4694L11.0188 19.2433L11.1479 19.3832L11.1356 19.3967L10.0049 20.6227ZM9.92538 20.483L10.0049 20.5691L11.0985 19.3832L11.0188 19.297L9.92538 20.483Z" fill="#603913"/>
<path d="M11.2372 20.1231C11.0841 19.9571 10.8356 19.9571 10.6823 20.1231C10.5291 20.2894 10.5291 20.5588 10.6823 20.7249C10.6958 20.7397 10.711 20.7515 10.726 20.7636L11.2729 20.1705C11.2618 20.1542 11.2508 20.1379 11.2372 20.1231Z" fill="#FFFD38"/>
<path d="M10.7279 20.7888L10.7118 20.7758C10.6979 20.7646 10.6834 20.7527 10.6701 20.7385C10.5103 20.565 10.5103 20.2833 10.6701 20.1098C10.7477 20.0257 10.8505 19.9796 10.96 19.9796C11.0694 19.9796 11.1723 20.0257 11.2498 20.1098C11.2634 20.1246 11.2745 20.1409 11.2851 20.1566L11.294 20.1696L11.2854 20.1841L10.7279 20.7888ZM10.96 20.0174C10.8598 20.0174 10.7657 20.0598 10.695 20.1367C10.5487 20.2951 10.5487 20.5532 10.695 20.7116C10.704 20.7216 10.714 20.7302 10.7246 20.7388L11.2501 20.1687C11.2416 20.1566 11.234 20.1462 11.2251 20.1368C11.1543 20.0598 11.0602 20.0174 10.96 20.0174Z" fill="#603913"/>
<path d="M11.1708 20.1956C11.0544 20.0693 10.8658 20.0693 10.7494 20.1956C10.633 20.3217 10.633 20.5262 10.7494 20.6526C10.7629 20.6674 10.7777 20.6799 10.7931 20.6911L11.2064 20.243C11.196 20.2264 11.1843 20.2104 11.1708 20.1956Z" fill="#FFFD38"/>
<path d="M10.7955 20.7157L10.7836 20.7068C10.7656 20.6938 10.7505 20.6804 10.7372 20.666C10.6143 20.5325 10.6143 20.3155 10.7372 20.182C10.7969 20.1175 10.8761 20.0819 10.9603 20.0819C11.0445 20.0819 11.1238 20.1175 11.1833 20.182C11.1967 20.1965 11.2091 20.2131 11.2211 20.2323L11.2291 20.2453L11.2191 20.2563L10.7955 20.7157ZM10.9603 20.1198C10.8854 20.1198 10.815 20.1515 10.762 20.2089C10.6527 20.3276 10.6527 20.5206 10.7621 20.639C10.7707 20.6488 10.7804 20.6576 10.7914 20.6665L11.1839 20.2408C11.1757 20.229 11.1675 20.2183 11.1586 20.2089C11.1057 20.1515 11.0353 20.1198 10.9603 20.1198Z" fill="#603913"/>
<path d="M10.0295 19.764L9.91048 19.635L9.82605 19.7266L9.75725 19.6518L9.68835 19.7266L9.75411 19.7978L9.69463 19.8623L9.62887 19.7911L9.56471 19.8606L9.63047 19.9319L9.53809 20.0321L9.65859 20.1627L10.0295 19.764Z" fill="#FFFD38"/>
<path d="M9.65837 20.1894L9.51318 20.0321L9.60557 19.9319L9.5398 19.8607L9.62865 19.7644L9.69441 19.8357L9.72921 19.7978L9.66341 19.7266L9.75704 19.6252L9.82583 19.6998L9.91029 19.6082L10.054 19.7641L9.65837 20.1894ZM9.56259 20.0321L9.65837 20.1358L10.0046 19.7639L9.91026 19.6618L9.8258 19.7534L9.757 19.6788L9.71278 19.7266L9.77854 19.7978L9.69434 19.8892L9.62857 19.8179L9.58914 19.8607L9.6549 19.9318L9.56259 20.0321Z" fill="#603913"/>
<path d="M10.2243 19.2167L10.1053 19.0877L10.0208 19.1793L9.95204 19.1046L9.88313 19.1793L9.9489 19.2505L9.88942 19.315L9.82365 19.2437L9.75953 19.3132L9.82529 19.3846L9.73291 19.4848L9.85341 19.6155L10.2243 19.2167Z" fill="#FFFD38"/>
<path d="M9.8532 19.6421L9.70801 19.4848L9.80039 19.3846L9.73463 19.3134L9.82347 19.2171L9.88924 19.2884L9.92404 19.2505L9.85827 19.1793L9.95186 19.078L10.0206 19.1526L10.1051 19.0609L10.2488 19.2168L9.8532 19.6421ZM9.75738 19.4848L9.85316 19.5888L10.1994 19.2166L10.1051 19.1145L10.0206 19.2061L9.95186 19.1315L9.90764 19.1793L9.97341 19.2505L9.88924 19.342L9.82347 19.2706L9.78404 19.3134L9.8498 19.3846L9.75738 19.4848Z" fill="#603913"/>
<path d="M10.7302 19.0243L10.6112 18.8953L10.5267 18.9871L10.4578 18.9125L10.389 18.9871L10.4548 19.0584L10.3953 19.1229L10.3295 19.0516L10.2654 19.1211L10.3312 19.1925L10.2388 19.2925L10.3593 19.423L10.7302 19.0243Z" fill="#FFFD38"/>
<path d="M10.3591 19.4498L10.2139 19.2925L10.3063 19.1925L10.2405 19.1211L10.3293 19.0246L10.3951 19.096L10.4299 19.0584L10.3641 18.987L10.4577 18.8855L10.5265 18.9602L10.611 18.8686L10.7547 19.0243L10.3591 19.4498ZM10.2632 19.2925L10.3591 19.3964L10.7053 19.0244L10.611 18.9222L10.5265 19.0139L10.4577 18.9391L10.4135 18.9871L10.4793 19.0584L10.3951 19.1496L10.3293 19.0782L10.2899 19.1211L10.3556 19.1925L10.2632 19.2925Z" fill="#603913"/>
<path d="M10.057 20.1411L10.0101 20.1921L9.88184 20.0529L9.92876 20.002L10.057 20.1411Z" fill="#FFFD38"/>
<path d="M10.0099 20.219L9.85693 20.0529L9.92858 19.9754L10.0815 20.1411L10.0099 20.219ZM9.9063 20.0529L10.0099 20.1654L10.0321 20.1411L9.92854 20.029L9.9063 20.0529Z" fill="#603913"/>
<path d="M10.3043 19.5879L10.201 19.7001L10.0977 19.5879L10.201 19.476L10.3043 19.5879Z" fill="#FFFD38"/>
<path d="M10.2008 19.7268L10.0728 19.5881L10.2008 19.4492L10.3288 19.5881L10.2008 19.7268ZM10.1222 19.5881L10.2007 19.6732L10.2794 19.5881L10.2007 19.5028L10.1222 19.5881Z" fill="#603913"/>
<path d="M10.7549 19.3844L10.6986 19.4455L10.5703 19.3064L10.6267 19.2451L10.7549 19.3844Z" fill="#FFFD38"/>
<path d="M10.6984 19.4722L10.5454 19.3064L10.6264 19.2185L10.7794 19.3845L10.6984 19.4722ZM10.5948 19.3064L10.6983 19.4186L10.73 19.3844L10.6264 19.2721L10.5948 19.3064Z" fill="#603913"/>
<path d="M12.8672 15.1686H14.2974V16.4417C14.2974 16.4417 14.2603 16.6622 14.176 16.787C13.9312 17.1616 13.5853 17.1616 13.5853 17.1616C13.5853 17.1616 13.2087 17.1663 13.003 16.7873C12.9001 16.6302 12.8754 16.4368 12.8754 16.4368L12.8672 15.1686Z" fill="#063796"/>
<path d="M13.7352 16.0528C13.7352 16.1356 13.6735 16.2027 13.5971 16.2027C13.5208 16.2027 13.459 16.1356 13.459 16.0528C13.459 15.9702 13.5208 15.903 13.5971 15.903C13.6735 15.903 13.7352 15.9702 13.7352 16.0528Z" fill="white"/>
<path d="M13.3496 15.6499C13.3496 15.7325 13.2878 15.7997 13.2113 15.7997C13.1351 15.7997 13.0732 15.7325 13.0732 15.6499C13.0732 15.567 13.1351 15.5 13.2113 15.5C13.2878 15.5 13.3496 15.5671 13.3496 15.6499Z" fill="white"/>
<path d="M13.3496 16.461C13.3496 16.5439 13.2878 16.6107 13.2113 16.6107C13.1351 16.6107 13.0732 16.5439 13.0732 16.461C13.0732 16.3784 13.1351 16.3112 13.2113 16.3112C13.2878 16.3112 13.3496 16.3784 13.3496 16.461Z" fill="white"/>
<path d="M14.1069 15.6499C14.1069 15.7325 14.045 15.7997 13.9687 15.7997C13.8924 15.7997 13.8306 15.7325 13.8306 15.6499C13.8306 15.567 13.8924 15.5 13.9687 15.5C14.045 15.5 14.1069 15.5671 14.1069 15.6499Z" fill="white"/>
<path d="M14.1069 16.461C14.1069 16.5439 14.045 16.6107 13.9687 16.6107C13.8924 16.6107 13.8306 16.5439 13.8306 16.461C13.8306 16.3784 13.8924 16.3112 13.9687 16.3112C14.045 16.3112 14.1069 16.3784 14.1069 16.461Z" fill="white"/>
<path d="M14.6841 15.1686H16.1143V16.4417C16.1143 16.4417 16.0773 16.6622 15.9928 16.787C15.748 17.1616 15.4023 17.1616 15.4023 17.1616C15.4023 17.1616 15.0257 17.1663 14.8199 16.7873C14.717 16.6302 14.6923 16.4368 14.6923 16.4368L14.6841 15.1686Z" fill="#063796"/>
<path d="M15.5522 16.0528C15.5522 16.1356 15.4904 16.2027 15.414 16.2027C15.3378 16.2027 15.2759 16.1356 15.2759 16.0528C15.2759 15.9702 15.3378 15.903 15.414 15.903C15.4904 15.903 15.5522 15.9702 15.5522 16.0528Z" fill="white"/>
<path d="M15.1665 15.6499C15.1665 15.7325 15.1046 15.7997 15.0284 15.7997C14.9521 15.7997 14.8901 15.7325 14.8901 15.6499C14.8901 15.567 14.9521 15.5 15.0284 15.5C15.1047 15.5 15.1665 15.5671 15.1665 15.6499Z" fill="white"/>
<path d="M15.1665 16.461C15.1665 16.5439 15.1046 16.6107 15.0284 16.6107C14.9521 16.6107 14.8901 16.5439 14.8901 16.461C14.8901 16.3784 14.9521 16.3112 15.0284 16.3112C15.1047 16.3112 15.1665 16.3784 15.1665 16.461Z" fill="white"/>
<path d="M15.9238 15.6499C15.9238 15.7325 15.8618 15.7997 15.7857 15.7997C15.7093 15.7997 15.6475 15.7325 15.6475 15.6499C15.6475 15.567 15.7093 15.5 15.7857 15.5C15.8618 15.5 15.9238 15.5671 15.9238 15.6499Z" fill="white"/>
<path d="M15.9238 16.461C15.9238 16.5439 15.8618 16.6107 15.7857 16.6107C15.7093 16.6107 15.6475 16.5439 15.6475 16.461C15.6475 16.3784 15.7093 16.3112 15.7857 16.3112C15.8618 16.3112 15.9238 16.3784 15.9238 16.461Z" fill="white"/>
<path d="M12.8672 12.6984H14.2974V13.9715C14.2974 13.9715 14.2603 14.1918 14.176 14.3167C13.9312 14.6912 13.5853 14.6912 13.5853 14.6912C13.5853 14.6912 13.2087 14.6962 13.003 14.317C12.9001 14.1599 12.8754 13.9666 12.8754 13.9666L12.8672 12.6984Z" fill="#063796"/>
<path d="M13.7352 13.5827C13.7352 13.6653 13.6735 13.7324 13.5971 13.7324C13.5208 13.7324 13.459 13.6653 13.459 13.5827C13.459 13.4998 13.5208 13.4327 13.5971 13.4327C13.6735 13.4327 13.7352 13.4998 13.7352 13.5827Z" fill="white"/>
<path d="M13.3496 13.1795C13.3496 13.2624 13.2878 13.3293 13.2113 13.3293C13.1351 13.3293 13.0732 13.2624 13.0732 13.1795C13.0732 13.097 13.1351 13.0298 13.2113 13.0298C13.2878 13.0297 13.3496 13.0969 13.3496 13.1795Z" fill="white"/>
<path d="M13.3496 13.9907C13.3496 14.0734 13.2878 14.1406 13.2113 14.1406C13.1351 14.1406 13.0732 14.0734 13.0732 13.9907C13.0732 13.9079 13.1351 13.8408 13.2113 13.8408C13.2878 13.8408 13.3496 13.908 13.3496 13.9907Z" fill="white"/>
<path d="M14.1069 13.1795C14.1069 13.2624 14.045 13.3293 13.9687 13.3293C13.8924 13.3293 13.8306 13.2624 13.8306 13.1795C13.8306 13.097 13.8924 13.0298 13.9687 13.0298C14.045 13.0297 14.1069 13.0969 14.1069 13.1795Z" fill="white"/>
<path d="M14.1069 13.9907C14.1069 14.0734 14.045 14.1406 13.9687 14.1406C13.8924 14.1406 13.8306 14.0734 13.8306 13.9907C13.8306 13.9079 13.8924 13.8408 13.9687 13.8408C14.045 13.8408 14.1069 13.908 14.1069 13.9907Z" fill="white"/>
<path d="M12.8672 17.6903H14.2974V18.9634C14.2974 18.9634 14.2603 19.1837 14.176 19.3085C13.9312 19.6829 13.5853 19.6829 13.5853 19.6829C13.5853 19.6829 13.2087 19.688 13.003 19.3088C12.9001 19.1518 12.8754 18.9583 12.8754 18.9583L12.8672 17.6903Z" fill="#063796"/>
<path d="M13.7352 18.5744C13.7352 18.657 13.6735 18.7242 13.5971 18.7242C13.5208 18.7242 13.459 18.657 13.459 18.5744C13.459 18.4916 13.5208 18.4245 13.5971 18.4245C13.6735 18.4245 13.7352 18.4915 13.7352 18.5744Z" fill="white"/>
<path d="M13.3496 18.1713C13.3496 18.2541 13.2878 18.3212 13.2113 18.3212C13.1351 18.3212 13.0732 18.2541 13.0732 18.1713C13.0732 18.0887 13.1351 18.0215 13.2113 18.0215C13.2878 18.0215 13.3496 18.0887 13.3496 18.1713Z" fill="white"/>
<path d="M13.3496 18.9826C13.3496 19.0652 13.2878 19.1324 13.2113 19.1324C13.1351 19.1324 13.0732 19.0652 13.0732 18.9826C13.0732 18.8997 13.1351 18.8327 13.2113 18.8327C13.2878 18.8327 13.3496 18.8997 13.3496 18.9826Z" fill="white"/>
<path d="M14.1069 18.1713C14.1069 18.2541 14.045 18.3212 13.9687 18.3212C13.8924 18.3212 13.8306 18.2541 13.8306 18.1713C13.8306 18.0887 13.8924 18.0215 13.9687 18.0215C14.045 18.0215 14.1069 18.0887 14.1069 18.1713Z" fill="white"/>
<path d="M14.1069 18.9826C14.1069 19.0652 14.045 19.1324 13.9687 19.1324C13.8924 19.1324 13.8306 19.0652 13.8306 18.9826C13.8306 18.8997 13.8924 18.8327 13.9687 18.8327C14.045 18.8327 14.1069 18.8997 14.1069 18.9826Z" fill="white"/>
<path d="M10.9668 15.2071H12.397V16.4802C12.397 16.4802 12.36 16.7007 12.2756 16.8253C12.0308 17.1999 11.685 17.1999 11.685 17.1999C11.685 17.1999 11.3083 17.2048 11.1026 16.8256C10.9997 16.6687 10.975 16.4751 10.975 16.4751L10.9668 15.2071Z" fill="#063796"/>
<path d="M11.847 16.0528C11.847 16.1356 11.7851 16.2027 11.7089 16.2027C11.6326 16.2027 11.5708 16.1356 11.5708 16.0528C11.5708 15.9702 11.6326 15.903 11.7089 15.903C11.7851 15.903 11.847 15.9702 11.847 16.0528Z" fill="white"/>
<path d="M11.4614 15.6499C11.4614 15.7325 11.3994 15.7997 11.3232 15.7997C11.2469 15.7997 11.1851 15.7325 11.1851 15.6499C11.1851 15.567 11.2469 15.5 11.3232 15.5C11.3995 15.5 11.4614 15.5671 11.4614 15.6499Z" fill="white"/>
<path d="M11.4614 16.461C11.4614 16.5439 11.3994 16.6107 11.3232 16.6107C11.2469 16.6107 11.1851 16.5439 11.1851 16.461C11.1851 16.3784 11.2469 16.3112 11.3232 16.3112C11.3995 16.3112 11.4614 16.3784 11.4614 16.461Z" fill="white"/>
<path d="M12.2186 15.6499C12.2186 15.7325 12.1568 15.7997 12.0805 15.7997C12.0042 15.7997 11.9424 15.7325 11.9424 15.6499C11.9424 15.567 12.0042 15.5 12.0805 15.5C12.1568 15.5 12.2186 15.5671 12.2186 15.6499Z" fill="white"/>
<path d="M12.2186 16.461C12.2186 16.5439 12.1568 16.6107 12.0805 16.6107C12.0042 16.6107 11.9424 16.5439 11.9424 16.461C11.9424 16.3784 12.0042 16.3112 12.0805 16.3112C12.1568 16.3112 12.2186 16.3784 12.2186 16.461Z" fill="white"/>
</g>
</g>
<defs>
<clipPath id="clip0_2331_5344">
<rect width="32" height="32" rx="16" fill="white"/>
</clipPath>
<clipPath id="clip1_2331_5344">
<rect width="72.6667" height="38.6667" fill="white" transform="translate(-17.3335 -3.33334)"/>
</clipPath>
</defs>
</svg>
