<svg width="224" height="75" viewBox="0 0 224 75" fill="none" xmlns="http://www.w3.org/2000/svg">
<path d="M8.19361 62.72H0.96106V23.8673H8.19361V62.72Z" fill="white"/>
<path d="M35.9884 34.857H42.8606V62.7188H35.9884V59.5049C34.8706 60.7566 33.4939 61.7521 31.953 62.4229C30.412 63.0934 28.7436 63.4233 27.0626 63.3895C25.1993 63.4436 23.3462 63.0972 21.6292 62.3738C19.9122 61.6504 18.3717 60.567 17.1123 59.1973C14.4848 56.328 13.0858 52.5491 13.2133 48.6664C13.1502 46.762 13.4669 44.8642 14.1451 43.0826C14.8232 41.301 15.8494 39.6714 17.1641 38.288C18.4274 36.9411 19.9626 35.876 21.6687 35.1633C23.3749 34.4504 25.2132 34.1061 27.0626 34.1527C28.7561 34.1346 30.4331 34.487 31.9751 35.1847C33.5174 35.8825 34.8873 36.9087 35.9884 38.1911V34.857ZM33.8348 43.0928C33.1024 42.3485 32.2283 41.7572 31.2639 41.3537C30.2994 40.9501 29.2639 40.7421 28.2178 40.7421C27.1717 40.7421 26.1364 40.9501 25.1718 41.3537C24.2074 41.7572 23.3333 42.3485 22.6009 43.0928C21.179 44.6388 20.4076 46.6703 20.4459 48.7673C20.3918 50.8914 21.1843 52.9504 22.6502 54.4934C23.3775 55.2374 24.2468 55.8287 25.2071 56.2325C26.1673 56.6363 27.1989 56.8442 28.2411 56.8442C29.2834 56.8442 30.3151 56.6363 31.2754 56.2325C32.2355 55.8287 33.105 55.2374 33.8322 54.4934C35.282 52.9469 36.0884 50.9096 36.0884 48.7931C36.0884 46.6766 35.282 44.6393 33.8322 43.0928H33.8348Z" fill="white"/>
<path d="M75.0731 38.3849C77.7403 41.1958 79.1793 44.9464 79.0745 48.8137C79.1807 52.6812 77.7413 56.4325 75.0731 59.2426C73.797 60.5871 72.252 61.65 70.5381 62.3622C68.824 63.0745 66.9793 63.4205 65.1227 63.3779C63.4474 63.408 61.7878 63.0502 60.2747 62.3326C58.7617 61.6151 57.4363 60.5573 56.4029 59.2426V62.72H49.3752V23.8673H56.6079V38.0825C57.6442 36.8366 58.9462 35.8368 60.4193 35.1559C61.8922 34.4749 63.4991 34.1299 65.1227 34.1463C66.9877 34.111 68.839 34.4706 70.5543 35.2014C72.2696 35.932 73.8097 37.0172 75.0731 38.3849ZM58.4543 54.4894C59.1797 55.2183 60.0426 55.7968 60.9934 56.1915C61.9443 56.5863 62.9641 56.7895 63.9941 56.7895C65.0241 56.7895 66.0439 56.5863 66.9947 56.1915C67.9456 55.7968 68.8085 55.2183 69.5339 54.4894C70.9641 52.9278 71.7354 50.8771 71.6875 48.7633C71.7437 46.6636 70.9703 44.6259 69.5339 43.0889C68.8294 42.3329 67.9703 41.7365 67.0147 41.3397C66.0592 40.9428 65.0293 40.755 63.9947 40.7886C62.9547 40.7522 61.9195 40.9441 60.962 41.3505C60.0046 41.7569 59.1486 42.368 58.4543 43.1405C57.0255 44.6616 56.2518 46.6803 56.2993 48.7633C56.2514 50.8774 57.0233 52.9283 58.4543 54.4894Z" fill="white"/>
<path d="M110.057 38.389C112.665 41.2092 114.064 44.9335 113.956 48.7674C114.046 52.6073 112.629 56.3304 110.007 59.1446C108.766 60.5162 107.244 61.6052 105.544 62.3376C103.843 63.0699 102.004 63.4283 100.152 63.3884C98.4954 63.4109 96.8533 63.0754 95.339 62.4047C93.8247 61.7341 92.4744 60.7444 91.3805 59.5038V74.1753H84.1494V34.8624H91.33V38.2869C92.4022 36.9771 93.7568 35.9251 95.2931 35.2092C96.8295 34.4932 98.5082 34.1318 100.204 34.1516C102.056 34.111 103.894 34.4683 105.594 35.1995C107.295 35.9308 108.817 37.0187 110.057 38.389ZM104.518 54.4937C105.906 52.9269 106.672 50.909 106.672 48.8192C106.672 46.7293 105.906 44.7114 104.518 43.1446C103.788 42.4151 102.92 41.8362 101.965 41.4413C101.01 41.0463 99.9863 40.843 98.9522 40.843C97.9182 40.843 96.8944 41.0463 95.9393 41.4413C94.9842 41.8362 94.1167 42.4151 93.3864 43.1446C91.9988 44.7114 91.233 46.7293 91.233 48.8192C91.233 50.909 91.9988 52.9269 93.3864 54.4937C94.117 55.2227 94.9845 55.8012 95.9396 56.196C96.8945 56.5906 97.9183 56.7938 98.9522 56.7938C99.9862 56.7938 101.01 56.5906 101.965 56.196C102.92 55.8012 103.787 55.2227 104.518 54.4937Z" fill="white"/>
<path d="M126.232 62.8527H119V24H126.232V62.8527Z" fill="white"/>
<path d="M132.471 50.954V34.8509H139.704V50.954C139.704 54.4821 141.805 56.7823 145.295 56.7823C148.784 56.7823 150.883 54.4821 150.883 50.954V34.8509H158.114V50.954C158.114 58.7763 153.293 63.3768 145.292 63.3768C137.337 63.3756 132.471 58.7763 132.471 50.954Z" fill="white"/>
<path d="M207.146 39.6824H199.914V0.8349H207.146V39.6824Z" fill="#74D2AD"/>
<path d="M184.046 23.8575V16.6504H223.024V23.8575H184.046Z" fill="#74D2AD"/>
<path d="M162.002 58.0736L165.85 53.5235C166.785 54.6883 167.96 55.6384 169.297 56.3092C170.634 56.9797 172.101 57.3549 173.597 57.4093C175.801 57.4093 177.443 56.2838 177.443 54.6956C177.443 53.725 176.776 52.9058 175.442 52.2931C174.981 52.0877 173.903 51.6794 172.107 51.0151C170.312 50.3508 169.133 49.8392 168.518 49.5316C167.269 49.0135 166.176 48.1821 165.346 47.118C164.516 46.054 163.977 44.7939 163.782 43.4602C163.585 42.1268 163.739 40.7653 164.229 39.5089C164.717 38.2524 165.525 37.1437 166.572 36.2907C168.742 34.6325 171.434 33.7993 174.164 33.94C175.987 33.8848 177.8 34.2112 179.486 34.8982C181.174 35.5851 182.699 36.6173 183.961 37.928L180.37 42.5804C178.68 40.8536 176.376 39.861 173.958 39.8187C172.061 39.8187 170.778 40.8926 170.778 42.1706C170.778 43.3466 171.599 44.1647 173.243 44.7268C176.936 46.107 179.192 47.0271 179.962 47.4407C183.091 49.078 184.681 51.4287 184.681 54.4966C184.704 55.7344 184.437 56.9605 183.903 58.0784C183.37 59.1961 182.583 60.1748 181.603 60.9374C179.308 62.7079 176.449 63.5973 173.551 63.4431C171.335 63.5316 169.131 63.0903 167.123 62.1562C165.114 61.2221 163.357 59.8222 162.002 58.0736Z" fill="white"/>
</svg>
