<svg width="224" height="75" viewBox="0 0 224 75" fill="none" xmlns="http://www.w3.org/2000/svg">
<path d="M8.22022 62.6754H0.986694V23.8057H8.22022V62.6754Z" fill="white"/>
<path d="M36.0185 34.7999H42.8916V62.6739H36.0185V59.4586C34.9006 60.7109 33.5236 61.7068 31.9825 62.3778C30.4413 63.0487 28.7726 63.3787 27.0915 63.3449C25.2279 63.399 23.3745 63.0525 21.6573 62.3288C19.9401 61.605 18.3994 60.5212 17.1398 59.1509C14.512 56.2803 13.1127 52.4997 13.2403 48.6154C13.1772 46.7101 13.4939 44.8114 14.1722 43.0291C14.8504 41.2467 15.8768 39.6164 17.1917 38.2324C18.4551 36.8849 19.9905 35.8194 21.6968 35.1063C23.4032 34.3931 25.2418 34.0486 27.0915 34.0952C28.7852 34.0772 30.4624 34.4297 32.0047 35.1277C33.5471 35.8258 34.9172 36.8525 36.0185 38.1355V34.7999ZM33.8646 43.0393C33.1321 42.2946 32.2579 41.7031 31.2934 41.2994C30.3287 40.8956 29.293 40.6876 28.2468 40.6876C27.2006 40.6876 26.1651 40.8956 25.2004 41.2994C24.2359 41.7031 23.3617 42.2946 22.6292 43.0393C21.207 44.586 20.4356 46.6184 20.4739 48.7162C20.4197 50.8413 21.2124 52.9012 22.6785 54.4448C23.4058 55.1892 24.2753 55.7807 25.2357 56.1847C26.1961 56.5887 27.2278 56.7967 28.2702 56.7967C29.3125 56.7967 30.3444 56.5887 31.3048 56.1847C32.2651 55.7807 33.1347 55.1892 33.862 54.4448C35.3119 52.8977 36.1185 50.8595 36.1185 48.7421C36.1185 46.6247 35.3119 44.5864 33.862 43.0393H33.8646Z" fill="white"/>
<path d="M75.1085 38.3296C77.7761 41.1417 79.2153 44.894 79.1105 48.763C79.2167 52.6322 77.7771 56.3851 75.1085 59.1965C73.8323 60.5415 72.2871 61.6049 70.573 62.3175C68.8587 63.0301 67.0137 63.3763 65.1568 63.3336C63.4813 63.3637 61.8215 63.0057 60.3082 62.2878C58.7949 61.57 57.4694 60.5117 56.4359 59.1965V62.6754H49.4072V23.8057H56.6409V38.0271C57.6773 36.7806 58.9795 35.7804 60.4528 35.0992C61.9259 34.4179 63.533 34.0728 65.1568 34.0891C67.0221 34.0538 68.8736 34.4136 70.5892 35.1447C72.3047 35.8756 73.845 36.9613 75.1085 38.3296ZM58.4875 54.4412C59.213 55.1704 60.076 55.7491 61.027 56.1441C61.9779 56.539 62.9979 56.7423 64.0281 56.7423C65.0582 56.7423 66.0782 56.539 67.0291 56.1441C67.9801 55.7491 68.8431 55.1704 69.5686 54.4412C70.999 52.8789 71.7704 50.8273 71.7225 48.7126C71.7787 46.612 71.0052 44.5733 69.5686 43.0357C68.864 42.2794 68.0048 41.6826 67.0491 41.2857C66.0934 40.8886 65.0634 40.7007 64.0287 40.7344C62.9886 40.698 61.9532 40.89 60.9955 41.2966C60.038 41.7031 59.1819 42.3145 58.4875 43.0873C57.0585 44.6091 56.2847 46.6287 56.3322 48.7126C56.2843 50.8276 57.0563 52.8794 58.4875 54.4412Z" fill="white"/>
<path d="M110.097 38.3334C112.706 41.1549 114.105 44.8808 113.997 48.7164C114.087 52.5579 112.67 56.2827 110.047 59.0982C108.806 60.4703 107.284 61.5598 105.583 62.2925C103.883 63.0251 102.043 63.3837 100.191 63.3438C98.5339 63.3663 96.8917 63.0307 95.3772 62.3596C93.8627 61.6888 92.5121 60.6986 91.4181 59.4575V74.1354H84.186V34.8052H91.3676V38.2313C92.4399 36.921 93.7948 35.8684 95.3312 35.1522C96.8679 34.4359 98.5468 34.0743 100.243 34.0942C102.095 34.0535 103.933 34.411 105.634 35.1426C107.334 35.8741 108.857 36.9625 110.097 38.3334ZM104.557 54.4452C105.945 52.8777 106.711 50.8589 106.711 48.7682C106.711 46.6774 105.945 44.6586 104.557 43.0911C103.827 42.3613 102.959 41.7821 102.004 41.387C101.049 40.9919 100.025 40.7885 98.9908 40.7885C97.9567 40.7885 96.9327 40.9919 95.9775 41.387C95.0223 41.7821 94.1547 42.3613 93.4243 43.0911C92.0365 44.6586 91.2705 46.6774 91.2705 48.7682C91.2705 50.8589 92.0365 52.8777 93.4243 54.4452C94.155 55.1746 95.0226 55.7532 95.9778 56.1482C96.9329 56.543 97.9568 56.7463 98.9908 56.7463C100.025 56.7463 101.049 56.543 102.004 56.1482C102.959 55.7532 103.827 55.1746 104.557 54.4452Z" fill="white"/>
<path d="M126.353 62.6754H119.12V23.8057H126.353V62.6754Z" fill="white"/>
<path d="M132.514 50.9038V34.7936H139.748V50.9038C139.748 54.4334 141.85 56.7346 145.34 56.7346C148.83 56.7346 150.929 54.4334 150.929 50.9038V34.7936H158.161V50.9038C158.161 58.7295 153.34 63.332 145.337 63.332C137.381 63.3308 132.514 58.7295 132.514 50.9038Z" fill="white"/>
<path d="M207.199 39.6274H199.967V0.762817H207.199V39.6274Z" fill="white"/>
<path d="M184.097 23.7953V16.585H223.08V23.7953H184.097Z" fill="white"/>
<path d="M162.049 58.0268L165.897 53.4747C166.833 54.64 168.009 55.5906 169.346 56.2616C170.683 56.9324 172.15 57.3078 173.646 57.3623C175.85 57.3623 177.492 56.2362 177.492 54.6474C177.492 53.6763 176.825 52.8567 175.491 52.2438C175.03 52.0382 173.952 51.6298 172.156 50.9653C170.361 50.3007 169.181 49.7888 168.566 49.4811C167.317 48.9628 166.224 48.131 165.394 47.0664C164.563 46.002 164.025 44.7413 163.829 43.4071C163.632 42.073 163.786 40.711 164.276 39.4539C164.765 38.1969 165.572 37.0877 166.619 36.2343C168.79 34.5755 171.483 33.7418 174.213 33.8826C176.036 33.8274 177.849 34.1539 179.536 34.8413C181.224 35.5285 182.749 36.5611 184.011 37.8724L180.42 42.5268C178.73 40.7993 176.425 39.8063 174.007 39.7639C172.11 39.7639 170.826 40.8383 170.826 42.1169C170.826 43.2933 171.647 44.1118 173.291 44.6742C176.985 46.055 179.241 46.9755 180.012 47.3892C183.141 49.0273 184.732 51.379 184.732 54.4482C184.755 55.6866 184.488 56.9132 183.953 58.0316C183.421 59.1498 182.633 60.129 181.653 60.8918C179.357 62.6632 176.498 63.5529 173.6 63.3987C171.383 63.4872 169.179 63.0458 167.171 62.1112C165.162 61.1767 163.405 59.7762 162.049 58.0268Z" fill="white"/>
</svg>
