<svg width="16" height="17" viewBox="0 0 16 17" fill="none" xmlns="http://www.w3.org/2000/svg">
    <path
        d="M14.0306 8.728L9.53063 13.228C9.38973 13.3689 9.19863 13.4481 8.99938 13.4481C8.80012 13.4481 8.60902 13.3689 8.46813 13.228C8.32723 13.0871 8.24807 12.896 8.24807 12.6968C8.24807 12.4975 8.32723 12.3064 8.46813 12.1655L11.6875 8.94738H2.5C2.30109 8.94738 2.11032 8.86836 1.96967 8.72771C1.82902 8.58705 1.75 8.39629 1.75 8.19738C1.75 7.99846 1.82902 7.8077 1.96967 7.66704C2.11032 7.52639 2.30109 7.44738 2.5 7.44738H11.6875L8.46937 4.22738C8.32848 4.08648 8.24932 3.89538 8.24932 3.69613C8.24932 3.49687 8.32848 3.30577 8.46937 3.16488C8.61027 3.02398 8.80137 2.94482 9.00062 2.94482C9.19988 2.94482 9.39098 3.02398 9.53187 3.16488L14.0319 7.66488C14.1018 7.73465 14.1573 7.81755 14.1951 7.90881C14.2329 8.00008 14.2523 8.09791 14.2522 8.1967C14.252 8.29548 14.2324 8.39327 14.1944 8.48445C14.1564 8.57563 14.1007 8.65839 14.0306 8.728Z"
        fill="#1F5A57" />
</svg>
    
