<svg width="14" height="14" viewBox="0 0 14 14" fill="none" xmlns="http://www.w3.org/2000/svg">
    <path
        d="M12.2768 7.46433L8.3393 11.4018C8.21601 11.5251 8.0488 11.5944 7.87445 11.5944C7.7001 11.5944 7.53289 11.5251 7.40961 11.4018C7.28633 11.2785 7.21707 11.1113 7.21707 10.937C7.21707 10.7626 7.28633 10.5954 7.40961 10.4721L10.2266 7.65628H2.1875C2.01345 7.65628 1.84653 7.58714 1.72346 7.46407C1.60039 7.341 1.53125 7.17408 1.53125 7.00003C1.53125 6.82599 1.60039 6.65907 1.72346 6.536C1.84653 6.41292 2.01345 6.34379 2.1875 6.34378H10.2266L7.4107 3.52628C7.28742 3.403 7.21816 3.23579 7.21816 3.06144C7.21816 2.88709 7.28742 2.71988 7.4107 2.5966C7.53399 2.47331 7.7012 2.40405 7.87555 2.40405C8.0499 2.40405 8.21711 2.47331 8.34039 2.5966L12.2779 6.5341C12.3391 6.59515 12.3876 6.66768 12.4207 6.74754C12.4538 6.8274 12.4707 6.913 12.4706 6.99944C12.4705 7.08588 12.4534 7.17144 12.4201 7.25122C12.3868 7.331 12.3381 7.40343 12.2768 7.46433Z"
        fill="#FEFDFD" />
</svg>
    
