<svg width="16" height="17" viewBox="0 0 16 17" fill="none" xmlns="http://www.w3.org/2000/svg">
    <path
        d="M12.5192 6.73235L7.18742 12.3453C7.14098 12.3943 7.0858 12.4333 7.02505 12.4598C6.96429 12.4864 6.89915 12.5 6.83336 12.5C6.76757 12.5 6.70243 12.4864 6.64168 12.4598C6.58092 12.4333 6.52574 12.3943 6.4793 12.3453L4.14666 9.88962C4.10016 9.84067 4.06328 9.78256 4.03811 9.71861C4.01295 9.65465 4 9.58611 4 9.51689C4 9.44766 4.01295 9.37912 4.03811 9.31516C4.06328 9.25121 4.10016 9.1931 4.14666 9.14415C4.19315 9.09521 4.24835 9.05638 4.3091 9.02989C4.36985 9.0034 4.43496 8.98976 4.50072 8.98976C4.56647 8.98976 4.63159 9.0034 4.69234 9.02989C4.75309 9.05638 4.80828 9.09521 4.85478 9.14415L6.83378 11.2275L11.8119 5.98776C11.9058 5.88891 12.0331 5.83337 12.1659 5.83337C12.2987 5.83337 12.4261 5.88891 12.52 5.98776C12.6139 6.08662 12.6667 6.2207 12.6667 6.3605C12.6667 6.5003 12.6139 6.63438 12.52 6.73323L12.5192 6.73235Z"
        fill="#FEFDFD" />
</svg>
    
