<svg width="13" height="10" viewBox="0 0 13 10" fill="none" xmlns="http://www.w3.org/2000/svg">
    <path
        d="M12.4961 4.05062C12.4149 3.93805 12.3081 3.8464 12.1844 3.78326C12.0608 3.72012 11.924 3.6873 11.7852 3.6875H10.9102V2.8125C10.9102 2.58044 10.818 2.35788 10.6539 2.19378C10.4898 2.02969 10.2672 1.9375 10.0352 1.9375H6.24367L4.72719 0.8C4.57547 0.686897 4.39142 0.625547 4.20219 0.625H1.28516C1.05309 0.625 0.830532 0.717187 0.666438 0.881282C0.502343 1.04538 0.410156 1.26794 0.410156 1.5V9.375C0.410156 9.49103 0.45625 9.60231 0.538297 9.68436C0.620344 9.76641 0.731624 9.8125 0.847656 9.8125H10.6422C10.734 9.81251 10.8235 9.78362 10.898 9.72993C10.9725 9.67624 11.0282 9.60047 11.0573 9.51336L12.6153 4.83922C12.6591 4.7077 12.6712 4.56767 12.6504 4.4306C12.6297 4.29353 12.5768 4.16332 12.4961 4.05062ZM4.20219 1.5L5.83516 2.725C5.91089 2.7818 6.00299 2.8125 6.09766 2.8125H10.0352V3.6875H2.9132C2.72955 3.68749 2.55054 3.74526 2.40155 3.85264C2.25256 3.96002 2.14113 4.11155 2.08305 4.28578L1.28516 6.67891V1.5H4.20219ZM10.3272 8.9375H1.45469L2.9132 4.5625H11.7852L10.3272 8.9375Z"
        fill="#1F5A57" />
</svg>
    
