<svg width="14" height="14" viewBox="0 0 14 14" fill="none" xmlns="http://www.w3.org/2000/svg">
    <path
        d="M12.1483 5.7885L7.77329 1.4135C7.56818 1.20845 7.29003 1.09326 7.00001 1.09326C6.70998 1.09326 6.43183 1.20845 6.22672 1.4135L1.85172 5.7885C1.74975 5.88985 1.66891 6.01044 1.6139 6.14328C1.55888 6.27611 1.53079 6.41855 1.53126 6.56232V11.8123C1.53126 11.9864 1.6004 12.1533 1.72347 12.2764C1.84654 12.3994 2.01346 12.4686 2.18751 12.4686H11.8125C11.9866 12.4686 12.1535 12.3994 12.2765 12.2764C12.3996 12.1533 12.4688 11.9864 12.4688 11.8123V6.56232C12.4692 6.41855 12.4411 6.27611 12.3861 6.14328C12.3311 6.01044 12.2503 5.88985 12.1483 5.7885ZM11.1563 11.1561H2.84376V6.65256L7.00001 2.49631L11.1563 6.65256V11.1561Z"
        fill="#FEFDFD" />
</svg>
    
