<svg width="20" height="21" viewBox="0 0 20 21" fill="none" xmlns="http://www.w3.org/2000/svg">
    <rect y="0.598633" width="20" height="20" rx="10" fill="#1F5A57"
        fill-opacity="0.1" />
    <path
        d="M14.25 8.59863C14.25 10.4405 12.7369 11.9768 10.75 12.2899V12.3486C10.75 12.5475 10.671 12.7383 10.5303 12.879C10.3897 13.0196 10.1989 13.0986 10 13.0986C9.80109 13.0986 9.61032 13.0196 9.46967 12.879C9.32902 12.7383 9.25 12.5475 9.25 12.3486V11.5986C9.25 11.3997 9.32902 11.209 9.46967 11.0683C9.61032 10.9277 9.80109 10.8486 10 10.8486C11.5163 10.8486 12.75 9.83926 12.75 8.59863C12.75 7.35801 11.5163 6.34863 10 6.34863C8.48375 6.34863 7.25 7.35801 7.25 8.59863C7.25 8.79755 7.17098 8.98831 7.03033 9.12896C6.88968 9.26962 6.69891 9.34863 6.5 9.34863C6.30109 9.34863 6.11032 9.26962 5.96967 9.12896C5.82902 8.98831 5.75 8.79755 5.75 8.59863C5.75 6.53113 7.65625 4.84863 10 4.84863C12.3438 4.84863 14.25 6.53113 14.25 8.59863ZM10 14.3486C9.75277 14.3486 9.5111 14.4219 9.30554 14.5593C9.09998 14.6966 8.93976 14.8919 8.84515 15.1203C8.75054 15.3487 8.72579 15.6 8.77402 15.8425C8.82225 16.085 8.9413 16.3077 9.11612 16.4825C9.29093 16.6573 9.51366 16.7764 9.75614 16.8246C9.99861 16.8728 10.2499 16.8481 10.4784 16.7535C10.7068 16.6589 10.902 16.4987 11.0393 16.2931C11.1767 16.0875 11.25 15.8459 11.25 15.5986C11.25 15.2671 11.1183 14.9492 10.8839 14.7147C10.6495 14.4803 10.3315 14.3486 10 14.3486Z"
        fill="#1F5A57" />
</svg>
