<svg width="20" height="20" viewBox="0 0 20 20" fill="none" xmlns="http://www.w3.org/2000/svg">
    <path
        d="M18.2701 8.63144L5.14038 1.13925C4.86356 0.984178 4.54607 0.917065 4.23017 0.946835C3.91427 0.976605 3.61491 1.10185 3.37193 1.30591C3.12894 1.50996 2.95384 1.78316 2.86992 2.08916C2.78599 2.39517 2.79722 2.71947 2.9021 3.01894L5.25992 10.0002L2.9021 16.9814C2.81921 17.217 2.79396 17.4689 2.82848 17.7162C2.863 17.9635 2.95627 18.1989 3.10049 18.4027C3.2447 18.6065 3.43567 18.7728 3.65737 18.8876C3.87908 19.0025 4.12508 19.0625 4.37476 19.0627C4.64326 19.0621 4.90713 18.9927 5.14117 18.8611L5.1482 18.8564L18.2732 11.351C18.5138 11.2147 18.714 11.0171 18.8533 10.7782C18.9926 10.5393 19.066 10.2677 19.066 9.9912C19.066 9.71467 18.9926 9.44309 18.8533 9.2042C18.714 8.96531 18.5138 8.76766 18.2732 8.63144H18.2701ZM4.93648 16.8174L6.92242 10.9377H11.2498C11.4984 10.9377 11.7369 10.8389 11.9127 10.6631C12.0885 10.4873 12.1873 10.2488 12.1873 10.0002C12.1873 9.75154 12.0885 9.51309 11.9127 9.33727C11.7369 9.16146 11.4984 9.06269 11.2498 9.06269H6.92242L4.9357 3.18144L16.8701 9.99159L4.93648 16.8174Z"
        fill="#1F5A57" />
</svg>
    
